<svg id="my-svg" width="100%" xmlns="http://www.w3.org/2000/svg" xmlns:xlink="http://www.w3.org/1999/xlink" class="requirementDiagram" style="max-width: 855.672px; background-color: white;" viewBox="0 0 855.671875 1442" role="graphics-document document" aria-roledescription="requirement"><style>#my-svg{font-family:"trebuchet ms",verdana,arial,sans-serif;font-size:16px;fill:#333;}@keyframes edge-animation-frame{from{stroke-dashoffset:0;}}@keyframes dash{to{stroke-dashoffset:0;}}#my-svg .edge-animation-slow{stroke-dasharray:9,5!important;stroke-dashoffset:900;animation:dash 50s linear infinite;stroke-linecap:round;}#my-svg .edge-animation-fast{stroke-dasharray:9,5!important;stroke-dashoffset:900;animation:dash 20s linear infinite;stroke-linecap:round;}#my-svg .error-icon{fill:#552222;}#my-svg .error-text{fill:#552222;stroke:#552222;}#my-svg .edge-thickness-normal{stroke-width:1px;}#my-svg .edge-thickness-thick{stroke-width:3.5px;}#my-svg .edge-pattern-solid{stroke-dasharray:0;}#my-svg .edge-thickness-invisible{stroke-width:0;fill:none;}#my-svg .edge-pattern-dashed{stroke-dasharray:3;}#my-svg .edge-pattern-dotted{stroke-dasharray:2;}#my-svg .marker{fill:#333333;stroke:#333333;}#my-svg .marker.cross{stroke:#333333;}#my-svg svg{font-family:"trebuchet ms",verdana,arial,sans-serif;font-size:16px;}#my-svg p{margin:0;}#my-svg marker{fill:#333333;stroke:#333333;}#my-svg marker.cross{stroke:#333333;}#my-svg svg{font-family:"trebuchet ms",verdana,arial,sans-serif;font-size:16px;}#my-svg .reqBox{fill:#ECECFF;fill-opacity:1.0;stroke:hsl(240, 60%, 86.2745098039%);stroke-width:1;}#my-svg .reqTitle,#my-svg .reqLabel{fill:#131300;}#my-svg .reqLabelBox{fill:rgba(232,232,232, 0.8);fill-opacity:1.0;}#my-svg .req-title-line{stroke:hsl(240, 60%, 86.2745098039%);stroke-width:1;}#my-svg .relationshipLine{stroke:#333333;stroke-width:1;}#my-svg .relationshipLabel{fill:black;}#my-svg .divider{stroke:#9370DB;stroke-width:1;}#my-svg .label{font-family:"trebuchet ms",verdana,arial,sans-serif;color:#333;}#my-svg .label text,#my-svg span{fill:#333;color:#333;}#my-svg .labelBkg{background-color:rgba(232,232,232, 0.8);}#my-svg :root{--mermaid-font-family:"trebuchet ms",verdana,arial,sans-serif;}</style><g><defs><marker id="my-svg_requirement-requirement_containsStart" refX="0" refY="10" markerWidth="20" markerHeight="20" orient="auto"><g><circle cx="10" cy="10" r="9" fill="none"/><line x1="1" x2="19" y1="10" y2="10"/><line y1="1" y2="19" x1="10" x2="10"/></g></marker></defs><defs><marker id="my-svg_requirement-requirement_arrowEnd" refX="20" refY="10" markerWidth="20" markerHeight="20" orient="auto"><path d="M0,0&#10;      L20,10&#10;      M20,10&#10;      L0,20"/></marker></defs><g class="root"><g class="clusters"/><g class="edgePaths"><path d="M77.047,366L77.047,378.167C77.047,390.333,77.047,414.667,79.547,433C82.046,451.333,87.046,463.667,89.546,469.833L92.046,476" id="test_entity-test_req2-0" class="edge-thickness-normal edge-pattern-dashed relationshipLine" style="fill:none;stroke-dasharray: 10,7;;;fill:none;stroke-dasharray: 10,7" data-edge="true" data-et="edge" data-id="test_entity-test_req2-0" data-points="W3sieCI6NzcuMDQ2ODc1LCJ5IjozNjZ9LHsieCI6NzcuMDQ2ODc1LCJ5Ijo0Mzl9LHsieCI6OTIuMDQ1NjMzNDc4NjgyMTYsInkiOjQ3Nn1d" marker-end="url(#my-svg_requirement-requirement_arrowEnd)"/><path d="M290.969,381.88L280.523,391.4C270.078,400.92,249.188,419.96,234.012,435.647C218.836,451.333,209.375,463.667,204.644,469.833L199.914,476" id="test_req-test_req2-0" class="edge-thickness-normal edge-pattern-dashed relationshipLine" style="fill:none;stroke-dasharray: 10,7;;;fill:none;stroke-dasharray: 10,7" data-edge="true" data-et="edge" data-id="test_req-test_req2-0" data-points="W3sieCI6MjkwLjk2ODc1LCJ5IjozODEuODgwMjc4MTkxNzUzNjN9LHsieCI6MjI4LjI5Njg3NSwieSI6NDM5fSx7IngiOjE5OS45MTM4NTA1MzI5NDU3MywieSI6NDc2fV0=" marker-end="url(#my-svg_requirement-requirement_arrowEnd)"/><path d="M407.456,402L409.978,408.167C412.499,414.333,417.543,426.667,420.064,439C422.586,451.333,422.586,463.667,422.586,469.833L422.586,476" id="test_req-test_req3-0" class="edge-thickness-normal edge-pattern-solid relationshipLine" style="fill:none;;;;fill:none;" data-edge="true" data-et="edge" data-id="test_req-test_req3-0" data-points="W3sieCI6NDA3LjQ1NjA5MjUzODc1OTY2LCJ5Ijo0MDJ9LHsieCI6NDIyLjU4NTkzNzUsInkiOjQzOX0seyJ4Ijo0MjIuNTg1OTM3NSwieSI6NDc2fV0=" marker-start="url(#my-svg_requirement-requirement_containsStart)"/><path d="M422.586,660L422.586,666.167C422.586,672.333,422.586,684.667,422.586,697C422.586,709.333,422.586,721.667,422.586,727.833L422.586,734" id="test_req3-test_req4-0" class="edge-thickness-normal edge-pattern-solid relationshipLine" style="fill:none;;;;fill:none;" data-edge="true" data-et="edge" data-id="test_req3-test_req4-0" data-points="W3sieCI6NDIyLjU4NTkzNzUsInkiOjY2MH0seyJ4Ijo0MjIuNTg1OTM3NSwieSI6Njk3fSx7IngiOjQyMi41ODU5Mzc1LCJ5Ijo3MzR9XQ==" marker-start="url(#my-svg_requirement-requirement_containsStart)"/><path d="M422.586,918L422.586,924.167C422.586,930.333,422.586,942.667,429.627,955.067C436.668,967.467,450.75,979.935,457.791,986.168L464.832,992.402" id="test_req4-test_req5-0" class="edge-thickness-normal edge-pattern-dashed relationshipLine" style="fill:none;stroke-dasharray: 10,7;;;fill:none;stroke-dasharray: 10,7" data-edge="true" data-et="edge" data-id="test_req4-test_req5-0" data-points="W3sieCI6NDIyLjU4NTkzNzUsInkiOjkxOH0seyJ4Ijo0MjIuNTg1OTM3NSwieSI6OTU1fSx7IngiOjQ2NC44MzIwMzEyNSwieSI6OTkyLjQwMjA4MDM3MzE4MDN9XQ==" marker-end="url(#my-svg_requirement-requirement_arrowEnd)"/><path d="M568.293,1176L568.293,1182.167C568.293,1188.333,568.293,1200.667,568.293,1213C568.293,1225.333,568.293,1237.667,568.293,1243.833L568.293,1250" id="test_req5-test_req6-0" class="edge-thickness-normal edge-pattern-dashed relationshipLine" style="fill:none;stroke-dasharray: 10,7;;;fill:none;stroke-dasharray: 10,7" data-edge="true" data-et="edge" data-id="test_req5-test_req6-0" data-points="W3sieCI6NTY4LjI5Mjk2ODc1LCJ5IjoxMTc2fSx7IngiOjU2OC4yOTI5Njg3NSwieSI6MTIxM30seyJ4Ijo1NjguMjkyOTY4NzUsInkiOjEyNTB9XQ==" marker-end="url(#my-svg_requirement-requirement_arrowEnd)"/><path d="M714,894L714,904.167C714,914.333,714,934.667,706.959,951.067C699.918,967.467,685.836,979.935,678.795,986.168L671.754,992.402" id="test_entity3-test_req5-0" class="edge-thickness-normal edge-pattern-dashed relationshipLine" style="fill:none;stroke-dasharray: 10,7;;;fill:none;stroke-dasharray: 10,7" data-edge="true" data-et="edge" data-id="test_entity3-test_req5-0" data-points="W3sieCI6NzE0LCJ5Ijo4OTR9LHsieCI6NzE0LCJ5Ijo5NTV9LHsieCI6NjcxLjc1MzkwNjI1LCJ5Ijo5OTIuNDAyMDgwMzczMTgwM31d" marker-end="url(#my-svg_requirement-requirement_arrowEnd)"/><path d="M369.836,144L369.836,150.167C369.836,156.333,369.836,168.667,369.836,181C369.836,193.333,369.836,205.667,369.836,211.833L369.836,218" id="test_entity2-test_req-0" class="edge-thickness-normal edge-pattern-dashed relationshipLine" style="fill:none;stroke-dasharray: 10,7;;;fill:none;stroke-dasharray: 10,7" data-edge="true" data-et="edge" data-id="test_entity2-test_req-0" data-points="W3sieCI6MzY5LjgzNTkzNzUsInkiOjE0NH0seyJ4IjozNjkuODM1OTM3NSwieSI6MTgxfSx7IngiOjM2OS44MzU5Mzc1LCJ5IjoyMTh9XQ==" marker-end="url(#my-svg_requirement-requirement_arrowEnd)"/></g><g class="edgeLabels"><g class="edgeLabel" transform="translate(77.046875, 439)"><g class="label" data-id="test_entity-test_req2-0" transform="translate(-45.7578125, -12)"><foreignObject width="91.515625" height="24"><div xmlns="http://www.w3.org/1999/xhtml" class="labelBkg" style="display: table-cell; white-space: nowrap; line-height: 1.5; max-width: 200px; text-align: center;"><span class="edgeLabel"><p>&lt;&lt;satisfies&gt;&gt;</p></span></div></foreignObject></g></g><g class="edgeLabel" transform="translate(242.40006, 426.14623)"><g class="label" data-id="test_req-test_req2-0" transform="translate(-38.828125, -12)"><foreignObject width="77.65625" height="24"><div xmlns="http://www.w3.org/1999/xhtml" class="labelBkg" style="display: table-cell; white-space: nowrap; line-height: 1.5; max-width: 200px; text-align: center;"><span class="edgeLabel"><p>&lt;&lt;traces&gt;&gt;</p></span></div></foreignObject></g></g><g class="edgeLabel" transform="translate(422.5859375, 439)"><g class="label" data-id="test_req-test_req3-0" transform="translate(-46.671875, -12)"><foreignObject width="93.34375" height="24"><div xmlns="http://www.w3.org/1999/xhtml" class="labelBkg" style="display: table-cell; white-space: nowrap; line-height: 1.5; max-width: 200px; text-align: center;"><span class="edgeLabel"><p>&lt;&lt;contains&gt;&gt;</p></span></div></foreignObject></g></g><g class="edgeLabel" transform="translate(422.5859375, 697)"><g class="label" data-id="test_req3-test_req4-0" transform="translate(-46.671875, -12)"><foreignObject width="93.34375" height="24"><div xmlns="http://www.w3.org/1999/xhtml" class="labelBkg" style="display: table-cell; white-space: nowrap; line-height: 1.5; max-width: 200px; text-align: center;"><span class="edgeLabel"><p>&lt;&lt;contains&gt;&gt;</p></span></div></foreignObject></g></g><g class="edgeLabel" transform="translate(422.5859375, 955)"><g class="label" data-id="test_req4-test_req5-0" transform="translate(-42.515625, -12)"><foreignObject width="85.03125" height="24"><div xmlns="http://www.w3.org/1999/xhtml" class="labelBkg" style="display: table-cell; white-space: nowrap; line-height: 1.5; max-width: 200px; text-align: center;"><span class="edgeLabel"><p>&lt;&lt;derives&gt;&gt;</p></span></div></foreignObject></g></g><g class="edgeLabel" transform="translate(568.29296875, 1213)"><g class="label" data-id="test_req5-test_req6-0" transform="translate(-41.46875, -12)"><foreignObject width="82.9375" height="24"><div xmlns="http://www.w3.org/1999/xhtml" class="labelBkg" style="display: table-cell; white-space: nowrap; line-height: 1.5; max-width: 200px; text-align: center;"><span class="edgeLabel"><p>&lt;&lt;refines&gt;&gt;</p></span></div></foreignObject></g></g><g class="edgeLabel" transform="translate(714, 955)"><g class="label" data-id="test_entity3-test_req5-0" transform="translate(-43.296875, -12)"><foreignObject width="86.59375" height="24"><div xmlns="http://www.w3.org/1999/xhtml" class="labelBkg" style="display: table-cell; white-space: nowrap; line-height: 1.5; max-width: 200px; text-align: center;"><span class="edgeLabel"><p>&lt;&lt;verifies&gt;&gt;</p></span></div></foreignObject></g></g><g class="edgeLabel" transform="translate(369.8359375, 181)"><g class="label" data-id="test_entity2-test_req-0" transform="translate(-39.375, -12)"><foreignObject width="78.75" height="24"><div xmlns="http://www.w3.org/1999/xhtml" class="labelBkg" style="display: table-cell; white-space: nowrap; line-height: 1.5; max-width: 200px; text-align: center;"><span class="edgeLabel"><p>&lt;&lt;copies&gt;&gt;</p></span></div></foreignObject></g></g></g><g class="nodes"><g class="node default" id="test_req" transform="translate(369.8359375, 310)"><g class="basic label-container" style=""><path d="M-78.8671875 -92 L78.8671875 -92 L78.8671875 92 L-78.8671875 92" stroke="none" stroke-width="0" fill="#ECECFF"/><path d="M-78.8671875 -92 C-29.28208117628369 -92, 20.30302514743262 -92, 78.8671875 -92 M-78.8671875 -92 C-33.77864413492258 -92, 11.30989923015484 -92, 78.8671875 -92 M78.8671875 -92 C78.8671875 -34.65884015869931, 78.8671875 22.682319682601374, 78.8671875 92 M78.8671875 -92 C78.8671875 -25.414210942759965, 78.8671875 41.17157811448007, 78.8671875 92 M78.8671875 92 C43.54042242489298 92, 8.213657349785962 92, -78.8671875 92 M78.8671875 92 C47.12796828007024 92, 15.388749060140483 92, -78.8671875 92 M-78.8671875 92 C-78.8671875 21.25976531577625, -78.8671875 -49.4804693684475, -78.8671875 -92 M-78.8671875 92 C-78.8671875 49.19285440886331, -78.8671875 6.3857088177266235, -78.8671875 -92" stroke="#9370DB" stroke-width="1.3" fill="none" stroke-dasharray="0 0"/></g><g class="label" style="" transform="translate(-62.609375, -84)"><foreignObject width="125.21875" height="24"><div xmlns="http://www.w3.org/1999/xhtml" style="display: table-cell; white-space: nowrap; line-height: 1.5; max-width: 243px; text-align: center;"><span class="nodeLabel markdown-node-label"><p>&lt;&lt;Requirement&gt;&gt;</p></span></div></foreignObject></g><g class="label" style="; font-weight: bold;" transform="translate(-31.765625, -60)"><foreignObject width="63.53125" height="24"><div style="font-weight: bold; display: table-cell; white-space: nowrap; line-height: 1.5; max-width: 103px; text-align: center;" xmlns="http://www.w3.org/1999/xhtml"><span style="; font-weight: bold;" class="nodeLabel markdown-node-label"><p>test_req</p></span></div></foreignObject></g><g class="label" style="" transform="translate(-68.8671875, -16)"><foreignObject width="33.359375" height="24"><div xmlns="http://www.w3.org/1999/xhtml" style="display: table-cell; white-space: nowrap; line-height: 1.5; max-width: 83px; text-align: center;"><span class="nodeLabel markdown-node-label"><p>ID: 1</p></span></div></foreignObject></g><g class="label" style="" transform="translate(-68.8671875, 8)"><foreignObject width="137.734375" height="24"><div xmlns="http://www.w3.org/1999/xhtml" style="display: table-cell; white-space: nowrap; line-height: 1.5; max-width: 164px; text-align: center;"><span class="nodeLabel markdown-node-label"><p>Text: the test text.</p></span></div></foreignObject></g><g class="label" style="" transform="translate(-68.8671875, 32)"><foreignObject width="70.921875" height="24"><div xmlns="http://www.w3.org/1999/xhtml" style="display: table-cell; white-space: nowrap; line-height: 1.5; max-width: 122px; text-align: center;"><span class="nodeLabel markdown-node-label"><p>Risk: High</p></span></div></foreignObject></g><g class="label" style="" transform="translate(-68.8671875, 56)"><foreignObject width="122.171875" height="24"><div xmlns="http://www.w3.org/1999/xhtml" style="display: table-cell; white-space: nowrap; line-height: 1.5; max-width: 162px; text-align: center;"><span class="nodeLabel markdown-node-label"><p>Verification: Test</p></span></div></foreignObject></g><g style=""><path d="M-78.8671875 -24 C-23.40781597604731 -24, 32.05155554790538 -24, 78.8671875 -24 M-78.8671875 -24 C-30.857811707329063 -24, 17.151564085341874 -24, 78.8671875 -24" stroke="#9370DB" stroke-width="1.3" fill="none" stroke-dasharray="0 0"/></g></g><g class="node default" id="test_req2" transform="translate(129.33984375, 568)"><g class="basic label-container" style=""><path d="M-112.6015625 -92 L112.6015625 -92 L112.6015625 92 L-112.6015625 92" stroke="none" stroke-width="0" fill="#ECECFF"/><path d="M-112.6015625 -92 C-56.475513184372815 -92, -0.3494638687456302 -92, 112.6015625 -92 M-112.6015625 -92 C-44.994215093935594 -92, 22.613132312128812 -92, 112.6015625 -92 M112.6015625 -92 C112.6015625 -34.75058088765522, 112.6015625 22.498838224689564, 112.6015625 92 M112.6015625 -92 C112.6015625 -29.45291512493918, 112.6015625 33.09416975012164, 112.6015625 92 M112.6015625 92 C36.395199165909716 92, -39.81116416818057 92, -112.6015625 92 M112.6015625 92 C43.60141806022595 92, -25.398726379548094 92, -112.6015625 92 M-112.6015625 92 C-112.6015625 42.851072115497104, -112.6015625 -6.297855769005793, -112.6015625 -92 M-112.6015625 92 C-112.6015625 22.72137105174211, -112.6015625 -46.55725789651578, -112.6015625 -92" stroke="#9370DB" stroke-width="1.3" fill="none" stroke-dasharray="0 0"/></g><g class="label" style="" transform="translate(-102.6015625, -84)"><foreignObject width="205.203125" height="24"><div xmlns="http://www.w3.org/1999/xhtml" style="display: table-cell; white-space: nowrap; line-height: 1.5; max-width: 315px; text-align: center;"><span class="nodeLabel markdown-node-label"><p>&lt;&lt;Functional Requirement&gt;&gt;</p></span></div></foreignObject></g><g class="label" style="; font-weight: bold;" transform="translate(-36.453125, -60)"><foreignObject width="72.90625" height="24"><div style="font-weight: bold; display: table-cell; white-space: nowrap; line-height: 1.5; max-width: 110px; text-align: center;" xmlns="http://www.w3.org/1999/xhtml"><span style="; font-weight: bold;" class="nodeLabel markdown-node-label"><p>test_req2</p></span></div></foreignObject></g><g class="label" style="" transform="translate(-102.6015625, -16)"><foreignObject width="47.625" height="24"><div xmlns="http://www.w3.org/1999/xhtml" style="display: table-cell; white-space: nowrap; line-height: 1.5; max-width: 95px; text-align: center;"><span class="nodeLabel markdown-node-label"><p>ID: 1.1</p></span></div></foreignObject></g><g class="label" style="" transform="translate(-102.6015625, 8)"><foreignObject width="191.921875" height="24"><div xmlns="http://www.w3.org/1999/xhtml" style="display: table-cell; white-space: nowrap; line-height: 1.5; max-width: 213px; text-align: center;"><span class="nodeLabel markdown-node-label"><p>Text: the second test text.</p></span></div></foreignObject></g><g class="label" style="" transform="translate(-102.6015625, 32)"><foreignObject width="67.71875" height="24"><div xmlns="http://www.w3.org/1999/xhtml" style="display: table-cell; white-space: nowrap; line-height: 1.5; max-width: 119px; text-align: center;"><span class="nodeLabel markdown-node-label"><p>Risk: Low</p></span></div></foreignObject></g><g class="label" style="" transform="translate(-102.6015625, 56)"><foreignObject width="167.078125" height="24"><div xmlns="http://www.w3.org/1999/xhtml" style="display: table-cell; white-space: nowrap; line-height: 1.5; max-width: 203px; text-align: center;"><span class="nodeLabel markdown-node-label"><p>Verification: Inspection</p></span></div></foreignObject></g><g style=""><path d="M-112.6015625 -24 C-45.98919771387449 -24, 20.62316707225102 -24, 112.6015625 -24 M-112.6015625 -24 C-64.41348419448832 -24, -16.225405888976653 -24, 112.6015625 -24" stroke="#9370DB" stroke-width="1.3" fill="none" stroke-dasharray="0 0"/></g></g><g class="node default" id="test_req3" transform="translate(422.5859375, 568)"><g class="basic label-container" style=""><path d="M-120.4765625 -92 L120.4765625 -92 L120.4765625 92 L-120.4765625 92" stroke="none" stroke-width="0" fill="#ECECFF"/><path d="M-120.4765625 -92 C-68.14058180164687 -92, -15.804601103293749 -92, 120.4765625 -92 M-120.4765625 -92 C-33.601688265840565 -92, 53.27318596831887 -92, 120.4765625 -92 M120.4765625 -92 C120.4765625 -25.525722398875615, 120.4765625 40.94855520224877, 120.4765625 92 M120.4765625 -92 C120.4765625 -25.957155588862477, 120.4765625 40.085688822275046, 120.4765625 92 M120.4765625 92 C54.46416694704432 92, -11.548228605911362 92, -120.4765625 92 M120.4765625 92 C70.68575995223108 92, 20.894957404462176 92, -120.4765625 92 M-120.4765625 92 C-120.4765625 25.223989498893943, -120.4765625 -41.552021002212115, -120.4765625 -92 M-120.4765625 92 C-120.4765625 21.888073661582453, -120.4765625 -48.223852676835094, -120.4765625 -92" stroke="#9370DB" stroke-width="1.3" fill="none" stroke-dasharray="0 0"/></g><g class="label" style="" transform="translate(-110.4765625, -84)"><foreignObject width="220.953125" height="24"><div xmlns="http://www.w3.org/1999/xhtml" style="display: table-cell; white-space: nowrap; line-height: 1.5; max-width: 329px; text-align: center;"><span class="nodeLabel markdown-node-label"><p>&lt;&lt;Performance Requirement&gt;&gt;</p></span></div></foreignObject></g><g class="label" style="; font-weight: bold;" transform="translate(-36.453125, -60)"><foreignObject width="72.90625" height="24"><div style="font-weight: bold; display: table-cell; white-space: nowrap; line-height: 1.5; max-width: 110px; text-align: center;" xmlns="http://www.w3.org/1999/xhtml"><span style="; font-weight: bold;" class="nodeLabel markdown-node-label"><p>test_req3</p></span></div></foreignObject></g><g class="label" style="" transform="translate(-110.4765625, -16)"><foreignObject width="47.625" height="24"><div xmlns="http://www.w3.org/1999/xhtml" style="display: table-cell; white-space: nowrap; line-height: 1.5; max-width: 95px; text-align: center;"><span class="nodeLabel markdown-node-label"><p>ID: 1.2</p></span></div></foreignObject></g><g class="label" style="" transform="translate(-110.4765625, 8)"><foreignObject width="177.328125" height="24"><div xmlns="http://www.w3.org/1999/xhtml" style="display: table-cell; white-space: nowrap; line-height: 1.5; max-width: 199px; text-align: center;"><span class="nodeLabel markdown-node-label"><p>Text: the third test text.</p></span></div></foreignObject></g><g class="label" style="" transform="translate(-110.4765625, 32)"><foreignObject width="94.703125" height="24"><div xmlns="http://www.w3.org/1999/xhtml" style="display: table-cell; white-space: nowrap; line-height: 1.5; max-width: 144px; text-align: center;"><span class="nodeLabel markdown-node-label"><p>Risk: Medium</p></span></div></foreignObject></g><g class="label" style="" transform="translate(-110.4765625, 56)"><foreignObject width="198.4375" height="24"><div xmlns="http://www.w3.org/1999/xhtml" style="display: table-cell; white-space: nowrap; line-height: 1.5; max-width: 231px; text-align: center;"><span class="nodeLabel markdown-node-label"><p>Verification: Demonstration</p></span></div></foreignObject></g><g style=""><path d="M-120.4765625 -24 C-44.43624387290882 -24, 31.604074754182363 -24, 120.4765625 -24 M-120.4765625 -24 C-24.98051409988146 -24, 70.51553430023708 -24, 120.4765625 -24" stroke="#9370DB" stroke-width="1.3" fill="none" stroke-dasharray="0 0"/></g></g><g class="node default" id="test_req4" transform="translate(422.5859375, 826)"><g class="basic label-container" style=""><path d="M-107.7421875 -92 L107.7421875 -92 L107.7421875 92 L-107.7421875 92" stroke="none" stroke-width="0" fill="#ECECFF"/><path d="M-107.7421875 -92 C-64.49868876702942 -92, -21.255190034058856 -92, 107.7421875 -92 M-107.7421875 -92 C-49.341398728437156 -92, 9.059390043125688 -92, 107.7421875 -92 M107.7421875 -92 C107.7421875 -38.74930933108442, 107.7421875 14.501381337831162, 107.7421875 92 M107.7421875 -92 C107.7421875 -52.98167630345054, 107.7421875 -13.963352606901083, 107.7421875 92 M107.7421875 92 C44.53803227985535 92, -18.6661229402893 92, -107.7421875 92 M107.7421875 92 C60.622254715356725 92, 13.50232193071345 92, -107.7421875 92 M-107.7421875 92 C-107.7421875 53.85666982838951, -107.7421875 15.713339656779013, -107.7421875 -92 M-107.7421875 92 C-107.7421875 35.19622291040449, -107.7421875 -21.607554179191027, -107.7421875 -92" stroke="#9370DB" stroke-width="1.3" fill="none" stroke-dasharray="0 0"/></g><g class="label" style="" transform="translate(-97.7421875, -84)"><foreignObject width="195.484375" height="24"><div xmlns="http://www.w3.org/1999/xhtml" style="display: table-cell; white-space: nowrap; line-height: 1.5; max-width: 304px; text-align: center;"><span class="nodeLabel markdown-node-label"><p>&lt;&lt;Interface Requirement&gt;&gt;</p></span></div></foreignObject></g><g class="label" style="; font-weight: bold;" transform="translate(-36.453125, -60)"><foreignObject width="72.90625" height="24"><div style="font-weight: bold; display: table-cell; white-space: nowrap; line-height: 1.5; max-width: 110px; text-align: center;" xmlns="http://www.w3.org/1999/xhtml"><span style="; font-weight: bold;" class="nodeLabel markdown-node-label"><p>test_req4</p></span></div></foreignObject></g><g class="label" style="" transform="translate(-97.7421875, -16)"><foreignObject width="61.890625" height="24"><div xmlns="http://www.w3.org/1999/xhtml" style="display: table-cell; white-space: nowrap; line-height: 1.5; max-width: 107px; text-align: center;"><span class="nodeLabel markdown-node-label"><p>ID: 1.2.1</p></span></div></foreignObject></g><g class="label" style="" transform="translate(-97.7421875, 8)"><foreignObject width="187.09375" height="24"><div xmlns="http://www.w3.org/1999/xhtml" style="display: table-cell; white-space: nowrap; line-height: 1.5; max-width: 208px; text-align: center;"><span class="nodeLabel markdown-node-label"><p>Text: the fourth test text.</p></span></div></foreignObject></g><g class="label" style="" transform="translate(-97.7421875, 32)"><foreignObject width="94.703125" height="24"><div xmlns="http://www.w3.org/1999/xhtml" style="display: table-cell; white-space: nowrap; line-height: 1.5; max-width: 144px; text-align: center;"><span class="nodeLabel markdown-node-label"><p>Risk: Medium</p></span></div></foreignObject></g><g class="label" style="" transform="translate(-97.7421875, 56)"><foreignObject width="149.4375" height="24"><div xmlns="http://www.w3.org/1999/xhtml" style="display: table-cell; white-space: nowrap; line-height: 1.5; max-width: 190px; text-align: center;"><span class="nodeLabel markdown-node-label"><p>Verification: Analysis</p></span></div></foreignObject></g><g style=""><path d="M-107.7421875 -24 C-62.931296320354384 -24, -18.12040514070877 -24, 107.7421875 -24 M-107.7421875 -24 C-45.52521703365529 -24, 16.691753432689424 -24, 107.7421875 -24" stroke="#9370DB" stroke-width="1.3" fill="none" stroke-dasharray="0 0"/></g></g><g class="node default" id="test_req5" transform="translate(568.29296875, 1084)"><g class="basic label-container" style=""><path d="M-103.4609375 -92 L103.4609375 -92 L103.4609375 92 L-103.4609375 92" stroke="none" stroke-width="0" fill="#ECECFF"/><path d="M-103.4609375 -92 C-51.382243013346354 -92, 0.6964514733072917 -92, 103.4609375 -92 M-103.4609375 -92 C-52.070546818375234 -92, -0.6801561367504689 -92, 103.4609375 -92 M103.4609375 -92 C103.4609375 -38.27944658650756, 103.4609375 15.441106826984878, 103.4609375 92 M103.4609375 -92 C103.4609375 -38.3911008680666, 103.4609375 15.217798263866797, 103.4609375 92 M103.4609375 92 C22.82497223871121 92, -57.81099302257758 92, -103.4609375 92 M103.4609375 92 C46.753138880669454 92, -9.954659738661093 92, -103.4609375 92 M-103.4609375 92 C-103.4609375 51.20106274937776, -103.4609375 10.402125498755524, -103.4609375 -92 M-103.4609375 92 C-103.4609375 48.743621372150045, -103.4609375 5.48724274430009, -103.4609375 -92" stroke="#9370DB" stroke-width="1.3" fill="none" stroke-dasharray="0 0"/></g><g class="label" style="" transform="translate(-93.4609375, -84)"><foreignObject width="186.921875" height="24"><div xmlns="http://www.w3.org/1999/xhtml" style="display: table-cell; white-space: nowrap; line-height: 1.5; max-width: 301px; text-align: center;"><span class="nodeLabel markdown-node-label"><p>&lt;&lt;Physical Requirement&gt;&gt;</p></span></div></foreignObject></g><g class="label" style="; font-weight: bold;" transform="translate(-36.453125, -60)"><foreignObject width="72.90625" height="24"><div style="font-weight: bold; display: table-cell; white-space: nowrap; line-height: 1.5; max-width: 110px; text-align: center;" xmlns="http://www.w3.org/1999/xhtml"><span style="; font-weight: bold;" class="nodeLabel markdown-node-label"><p>test_req5</p></span></div></foreignObject></g><g class="label" style="" transform="translate(-93.4609375, -16)"><foreignObject width="61.890625" height="24"><div xmlns="http://www.w3.org/1999/xhtml" style="display: table-cell; white-space: nowrap; line-height: 1.5; max-width: 107px; text-align: center;"><span class="nodeLabel markdown-node-label"><p>ID: 1.2.2</p></span></div></foreignObject></g><g class="label" style="" transform="translate(-93.4609375, 8)"><foreignObject width="174.03125" height="24"><div xmlns="http://www.w3.org/1999/xhtml" style="display: table-cell; white-space: nowrap; line-height: 1.5; max-width: 196px; text-align: center;"><span class="nodeLabel markdown-node-label"><p>Text: the fifth test text.</p></span></div></foreignObject></g><g class="label" style="" transform="translate(-93.4609375, 32)"><foreignObject width="94.703125" height="24"><div xmlns="http://www.w3.org/1999/xhtml" style="display: table-cell; white-space: nowrap; line-height: 1.5; max-width: 144px; text-align: center;"><span class="nodeLabel markdown-node-label"><p>Risk: Medium</p></span></div></foreignObject></g><g class="label" style="" transform="translate(-93.4609375, 56)"><foreignObject width="149.4375" height="24"><div xmlns="http://www.w3.org/1999/xhtml" style="display: table-cell; white-space: nowrap; line-height: 1.5; max-width: 190px; text-align: center;"><span class="nodeLabel markdown-node-label"><p>Verification: Analysis</p></span></div></foreignObject></g><g style=""><path d="M-103.4609375 -24 C-44.0046797289228 -24, 15.451578042154395 -24, 103.4609375 -24 M-103.4609375 -24 C-37.32280598049728 -24, 28.815325539005443 -24, 103.4609375 -24" stroke="#9370DB" stroke-width="1.3" fill="none" stroke-dasharray="0 0"/></g></g><g class="node default" id="test_req6" transform="translate(568.29296875, 1342)"><g class="basic label-container" style=""><path d="M-98.34375 -92 L98.34375 -92 L98.34375 92 L-98.34375 92" stroke="none" stroke-width="0" fill="#ECECFF"/><path d="M-98.34375 -92 C-46.72704807561388 -92, 4.889653848772241 -92, 98.34375 -92 M-98.34375 -92 C-54.447672967545905 -92, -10.551595935091811 -92, 98.34375 -92 M98.34375 -92 C98.34375 -55.07058619610863, 98.34375 -18.141172392217257, 98.34375 92 M98.34375 -92 C98.34375 -32.981651312710085, 98.34375 26.03669737457983, 98.34375 92 M98.34375 92 C21.604628647290653 92, -55.134492705418694 92, -98.34375 92 M98.34375 92 C56.844583188585474 92, 15.345416377170949 92, -98.34375 92 M-98.34375 92 C-98.34375 49.329508343216666, -98.34375 6.659016686433333, -98.34375 -92 M-98.34375 92 C-98.34375 23.835244516802106, -98.34375 -44.32951096639579, -98.34375 -92" stroke="#9370DB" stroke-width="1.3" fill="none" stroke-dasharray="0 0"/></g><g class="label" style="" transform="translate(-79.3671875, -84)"><foreignObject width="158.734375" height="24"><div xmlns="http://www.w3.org/1999/xhtml" style="display: table-cell; white-space: nowrap; line-height: 1.5; max-width: 276px; text-align: center;"><span class="nodeLabel markdown-node-label"><p>&lt;&lt;Design Constraint&gt;&gt;</p></span></div></foreignObject></g><g class="label" style="; font-weight: bold;" transform="translate(-36.453125, -60)"><foreignObject width="72.90625" height="24"><div style="font-weight: bold; display: table-cell; white-space: nowrap; line-height: 1.5; max-width: 110px; text-align: center;" xmlns="http://www.w3.org/1999/xhtml"><span style="; font-weight: bold;" class="nodeLabel markdown-node-label"><p>test_req6</p></span></div></foreignObject></g><g class="label" style="" transform="translate(-88.34375, -16)"><foreignObject width="61.890625" height="24"><div xmlns="http://www.w3.org/1999/xhtml" style="display: table-cell; white-space: nowrap; line-height: 1.5; max-width: 107px; text-align: center;"><span class="nodeLabel markdown-node-label"><p>ID: 1.2.3</p></span></div></foreignObject></g><g class="label" style="" transform="translate(-88.34375, 8)"><foreignObject width="176.6875" height="24"><div xmlns="http://www.w3.org/1999/xhtml" style="display: table-cell; white-space: nowrap; line-height: 1.5; max-width: 200px; text-align: center;"><span class="nodeLabel markdown-node-label"><p>Text: the sixth test text.</p></span></div></foreignObject></g><g class="label" style="" transform="translate(-88.34375, 32)"><foreignObject width="94.703125" height="24"><div xmlns="http://www.w3.org/1999/xhtml" style="display: table-cell; white-space: nowrap; line-height: 1.5; max-width: 144px; text-align: center;"><span class="nodeLabel markdown-node-label"><p>Risk: Medium</p></span></div></foreignObject></g><g class="label" style="" transform="translate(-88.34375, 56)"><foreignObject width="149.4375" height="24"><div xmlns="http://www.w3.org/1999/xhtml" style="display: table-cell; white-space: nowrap; line-height: 1.5; max-width: 190px; text-align: center;"><span class="nodeLabel markdown-node-label"><p>Verification: Analysis</p></span></div></foreignObject></g><g style=""><path d="M-98.34375 -24 C-53.38188128030999 -24, -8.42001256061998 -24, 98.34375 -24 M-98.34375 -24 C-32.516749670785686 -24, 33.31025065842863 -24, 98.34375 -24" stroke="#9370DB" stroke-width="1.3" fill="none" stroke-dasharray="0 0"/></g></g><g class="node default" id="test_entity" transform="translate(77.046875, 310)"><g class="basic label-container" style=""><path d="M-69.046875 -56 L69.046875 -56 L69.046875 56 L-69.046875 56" stroke="none" stroke-width="0" fill="#ECECFF"/><path d="M-69.046875 -56 C-34.866398352034345 -56, -0.68592170406869 -56, 69.046875 -56 M-69.046875 -56 C-38.299261383861314 -56, -7.551647767722628 -56, 69.046875 -56 M69.046875 -56 C69.046875 -20.855364075475876, 69.046875 14.289271849048248, 69.046875 56 M69.046875 -56 C69.046875 -13.256636016429162, 69.046875 29.486727967141675, 69.046875 56 M69.046875 56 C24.24864133649197 56, -20.549592327016057 56, -69.046875 56 M69.046875 56 C32.24435162678049 56, -4.558171746439015 56, -69.046875 56 M-69.046875 56 C-69.046875 31.461302956358033, -69.046875 6.922605912716065, -69.046875 -56 M-69.046875 56 C-69.046875 29.239385647651762, -69.046875 2.478771295303524, -69.046875 -56" stroke="#9370DB" stroke-width="1.3" fill="none" stroke-dasharray="0 0"/></g><g class="label" style="" transform="translate(-46.3359375, -48)"><foreignObject width="92.671875" height="24"><div xmlns="http://www.w3.org/1999/xhtml" style="display: table-cell; white-space: nowrap; line-height: 1.5; max-width: 214px; text-align: center;"><span class="nodeLabel markdown-node-label"><p>&lt;&lt;Element&gt;&gt;</p></span></div></foreignObject></g><g class="label" style="; font-weight: bold;" transform="translate(-41.3984375, -24)"><foreignObject width="82.796875" height="24"><div style="font-weight: bold; display: table-cell; white-space: nowrap; line-height: 1.5; max-width: 119px; text-align: center;" xmlns="http://www.w3.org/1999/xhtml"><span style="; font-weight: bold;" class="nodeLabel markdown-node-label"><p>test_entity</p></span></div></foreignObject></g><g class="label" style="" transform="translate(-59.046875, 20)"><foreignObject width="118.09375" height="24"><div xmlns="http://www.w3.org/1999/xhtml" style="display: table-cell; white-space: nowrap; line-height: 1.5; max-width: 159px; text-align: center;"><span class="nodeLabel markdown-node-label"><p>Type: simulation</p></span></div></foreignObject></g><g style=""><path d="M-69.046875 12 C-17.17661396108602 12, 34.69364707782796 12, 69.046875 12 M-69.046875 12 C-24.167641452806762 12, 20.711592094386475 12, 69.046875 12" stroke="#9370DB" stroke-width="1.3" fill="none" stroke-dasharray="0 0"/></g></g><g class="node default" id="test_entity2" transform="translate(369.8359375, 76)"><g class="basic label-container" style=""><path d="M-101.3828125 -68 L101.3828125 -68 L101.3828125 68 L-101.3828125 68" stroke="none" stroke-width="0" fill="#ECECFF"/><path d="M-101.3828125 -68 C-59.35195490129805 -68, -17.3210973025961 -68, 101.3828125 -68 M-101.3828125 -68 C-22.032805294399893 -68, 57.317201911200215 -68, 101.3828125 -68 M101.3828125 -68 C101.3828125 -39.38873214020701, 101.3828125 -10.77746428041403, 101.3828125 68 M101.3828125 -68 C101.3828125 -26.186396206138006, 101.3828125 15.627207587723987, 101.3828125 68 M101.3828125 68 C29.89154349794518 68, -41.59972550410964 68, -101.3828125 68 M101.3828125 68 C36.394635774555155 68, -28.59354095088969 68, -101.3828125 68 M-101.3828125 68 C-101.3828125 17.995187894301502, -101.3828125 -32.009624211396996, -101.3828125 -68 M-101.3828125 68 C-101.3828125 39.999937897183536, -101.3828125 11.999875794367071, -101.3828125 -68" stroke="#9370DB" stroke-width="1.3" fill="none" stroke-dasharray="0 0"/></g><g class="label" style="" transform="translate(-46.3359375, -60)"><foreignObject width="92.671875" height="24"><div xmlns="http://www.w3.org/1999/xhtml" style="display: table-cell; white-space: nowrap; line-height: 1.5; max-width: 214px; text-align: center;"><span class="nodeLabel markdown-node-label"><p>&lt;&lt;Element&gt;&gt;</p></span></div></foreignObject></g><g class="label" style="; font-weight: bold;" transform="translate(-46.0859375, -36)"><foreignObject width="92.171875" height="24"><div style="font-weight: bold; display: table-cell; white-space: nowrap; line-height: 1.5; max-width: 126px; text-align: center;" xmlns="http://www.w3.org/1999/xhtml"><span style="; font-weight: bold;" class="nodeLabel markdown-node-label"><p>test_entity2</p></span></div></foreignObject></g><g class="label" style="" transform="translate(-91.3828125, 8)"><foreignObject width="109.546875" height="24"><div xmlns="http://www.w3.org/1999/xhtml" style="display: table-cell; white-space: nowrap; line-height: 1.5; max-width: 150px; text-align: center;"><span class="nodeLabel markdown-node-label"><p>Type: word doc</p></span></div></foreignObject></g><g class="label" style="" transform="translate(-91.3828125, 32)"><foreignObject width="182.765625" height="24"><div xmlns="http://www.w3.org/1999/xhtml" style="display: table-cell; white-space: nowrap; line-height: 1.5; max-width: 212px; text-align: center;"><span class="nodeLabel markdown-node-label"><p>Doc Ref: reqs/test_entity</p></span></div></foreignObject></g><g style=""><path d="M-101.3828125 0 C-28.296804207923174 0, 44.78920408415365 0, 101.3828125 0 M-101.3828125 0 C-23.44113056613982 0, 54.50055136772036 0, 101.3828125 0" stroke="#9370DB" stroke-width="1.3" fill="none" stroke-dasharray="0 0"/></g></g><g class="node default" id="test_entity3" transform="translate(714, 826)"><g class="basic label-container" style=""><path d="M-133.671875 -68 L133.671875 -68 L133.671875 68 L-133.671875 68" stroke="none" stroke-width="0" fill="#ECECFF"/><path d="M-133.671875 -68 C-29.135361144776212 -68, 75.40115271044758 -68, 133.671875 -68 M-133.671875 -68 C-51.546218824640434 -68, 30.579437350719132 -68, 133.671875 -68 M133.671875 -68 C133.671875 -24.973269257609495, 133.671875 18.05346148478101, 133.671875 68 M133.671875 -68 C133.671875 -34.049835199920466, 133.671875 -0.09967039984093162, 133.671875 68 M133.671875 68 C38.667880080918806 68, -56.33611483816239 68, -133.671875 68 M133.671875 68 C41.19582810358099 68, -51.28021879283801 68, -133.671875 68 M-133.671875 68 C-133.671875 19.661378476437505, -133.671875 -28.67724304712499, -133.671875 -68 M-133.671875 68 C-133.671875 34.51688171335484, -133.671875 1.0337634267096831, -133.671875 -68" stroke="#9370DB" stroke-width="1.3" fill="none" stroke-dasharray="0 0"/></g><g class="label" style="" transform="translate(-46.3359375, -60)"><foreignObject width="92.671875" height="24"><div xmlns="http://www.w3.org/1999/xhtml" style="display: table-cell; white-space: nowrap; line-height: 1.5; max-width: 214px; text-align: center;"><span class="nodeLabel markdown-node-label"><p>&lt;&lt;Element&gt;&gt;</p></span></div></foreignObject></g><g class="label" style="; font-weight: bold;" transform="translate(-46.0859375, -36)"><foreignObject width="92.171875" height="24"><div style="font-weight: bold; display: table-cell; white-space: nowrap; line-height: 1.5; max-width: 126px; text-align: center;" xmlns="http://www.w3.org/1999/xhtml"><span style="; font-weight: bold;" class="nodeLabel markdown-node-label"><p>test_entity3</p></span></div></foreignObject></g><g class="label" style="" transform="translate(-123.671875, 8)"><foreignObject width="111.234375" height="24"><div xmlns="http://www.w3.org/1999/xhtml" style="display: table-cell; white-space: nowrap; line-height: 1.5; max-width: 147px; text-align: center;"><span class="nodeLabel markdown-node-label"><p>Type: test suite</p></span></div></foreignObject></g><g class="label" style="" transform="translate(-123.671875, 32)"><foreignObject width="247.34375" height="24"><div xmlns="http://www.w3.org/1999/xhtml" style="display: table-cell; white-space: nowrap; line-height: 1.5; max-width: 270px; text-align: center;"><span class="nodeLabel markdown-node-label"><p>Doc Ref: github.com/all_the_tests</p></span></div></foreignObject></g><g style=""><path d="M-133.671875 0 C-36.29847481507733 0, 61.074925369845346 0, 133.671875 0 M-133.671875 0 C-56.28489512160543 0, 21.10208475678914 0, 133.671875 0" stroke="#9370DB" stroke-width="1.3" fill="none" stroke-dasharray="0 0"/></g></g></g></g></g></svg>