<?plantuml 1.2026.2?><svg xmlns="http://www.w3.org/2000/svg" xmlns:xlink="http://www.w3.org/1999/xlink" contentStyleType="text/css" data-diagram-type="STATE" height="434px" preserveAspectRatio="none" style="width:244px;height:434px;background:#FFFFFF;" version="1.1" viewBox="0 0 244 434" width="244px" zoomAndPan="magnify"><defs/><g><!--cluster Somp--><g class="cluster" data-qualified-name="Somp" data-source-line="1" id="ent0002"><path d="M19.5,111 L161.5,111 A12.5,12.5 0 0 1 174,123.5 L174,133.6094 L7,133.6094 L7,123.5 A12.5,12.5 0 0 1 19.5,111" fill="#F1F1F1"/><rect fill="none" height="201" rx="12.5" ry="12.5" style="stroke:#181818;stroke-width:0.5;" width="167" x="7" y="111"/><line style="stroke:#181818;stroke-width:0.5;" x1="7" x2="174" y1="133.6094" y2="133.6094"/><text fill="#000000" font-family="sans-serif" font-size="14" lengthAdjust="spacing" textLength="36.5723" x="72.2139" y="130.5332">Somp</text></g><text fill="#000000" font-family="sans-serif" font-size="14" lengthAdjust="spacing" textLength="38.9102" x="6.5449" y="89.9238">entry1</text><rect fill="#F1F1F1" height="12" style="stroke:#181818;stroke-width:1.5;" width="48" x="20" y="105"/><line style="stroke:#181818;stroke-width:1.5;" x1="32" x2="32" y1="105" y2="117"/><line style="stroke:#181818;stroke-width:1.5;" x1="44" x2="44" y1="105" y2="117"/><line style="stroke:#181818;stroke-width:1.5;" x1="56" x2="56" y1="105" y2="117"/><text fill="#000000" font-family="sans-serif" font-size="14" lengthAdjust="spacing" textLength="38.9102" x="89.5449" y="89.9238">entry2</text><rect fill="#F1F1F1" height="12" style="stroke:#181818;stroke-width:1.5;" width="48" x="103" y="105"/><line style="stroke:#181818;stroke-width:1.5;" x1="115" x2="115" y1="105" y2="117"/><line style="stroke:#181818;stroke-width:1.5;" x1="127" x2="127" y1="105" y2="117"/><line style="stroke:#181818;stroke-width:1.5;" x1="139" x2="139" y1="105" y2="117"/><g class="entity" data-qualified-name="Somp.sin" id="ent0005"><rect fill="#F1F1F1" height="50" rx="12.5" ry="12.5" style="stroke:#181818;stroke-width:0.5;" width="50" x="23" y="196"/><line style="stroke:#181818;stroke-width:0.5;" x1="23" x2="73" y1="223.6094" y2="223.6094"/><text fill="#000000" font-family="sans-serif" font-size="14" lengthAdjust="spacing" textLength="17.8965" x="39.0518" y="215.5332">sin</text></g><text fill="#000000" font-family="sans-serif" font-size="14" lengthAdjust="spacing" textLength="31.124" x="99.438" y="332.5332">exitA</text><rect fill="#F1F1F1" height="12" style="stroke:#181818;stroke-width:1.5;" width="48" x="109" y="306"/><line style="stroke:#181818;stroke-width:1.5;" x1="121" x2="121" y1="306" y2="318"/><line style="stroke:#181818;stroke-width:1.5;" x1="133" x2="133" y1="306" y2="318"/><line style="stroke:#181818;stroke-width:1.5;" x1="145" x2="145" y1="306" y2="318"/><g class="entity" data-qualified-name="Somp.sin2" id="ent0004"><rect fill="#F1F1F1" height="50" rx="12.5" ry="12.5" style="stroke:#181818;stroke-width:0.5;" width="50" x="108" y="196"/><line style="stroke:#181818;stroke-width:0.5;" x1="108" x2="158" y1="223.6094" y2="223.6094"/><text fill="#000000" font-family="sans-serif" font-size="14" lengthAdjust="spacing" textLength="25.6826" x="120.1587" y="215.5332">sin2</text></g><g class="start_entity" data-qualified-name=".start." data-source-line="13" id="ent0007"><ellipse cx="44" cy="16" fill="#222222" rx="10" ry="10" style="stroke:#222222;stroke-width:1;"/></g><g class="entity" data-qualified-name="Foo" id="ent0009"><rect fill="#F1F1F1" height="50" rx="12.5" ry="12.5" style="stroke:#181818;stroke-width:0.5;" width="50" x="108" y="378"/><line style="stroke:#181818;stroke-width:0.5;" x1="108" x2="158" y1="405.6094" y2="405.6094"/><text fill="#000000" font-family="sans-serif" font-size="14" lengthAdjust="spacing" textLength="24.124" x="120.938" y="397.5332">Foo</text></g><g class="entity" data-qualified-name="Foo1" id="ent0011"><rect fill="#F1F1F1" height="50" rx="12.5" ry="12.5" style="stroke:#181818;stroke-width:0.5;" width="51.9102" x="186" y="86"/><line style="stroke:#181818;stroke-width:0.5;" x1="186" x2="237.9102" y1="113.6094" y2="113.6094"/><text fill="#000000" font-family="sans-serif" font-size="14" lengthAdjust="spacing" textLength="31.9102" x="196" y="105.5332">Foo1</text></g><!--link entry1 to sin--><g class="link" data-entity-1="ent0003" data-entity-2="ent0005" data-link-type="dependency" data-source-line="7" id="lnk2"><path d="M44.19,117.21 C44.71,131.11 45.9187,163.8041 46.8687,189.5441" fill="none" id="entry1-to-sin" style="stroke:#181818;stroke-width:1;"/><polygon fill="#181818" points="47.09,195.54,50.7553,186.3986,46.9056,190.5434,42.7608,186.6937,47.09,195.54" style="stroke:#181818;stroke-width:1;"/></g><!--link entry2 to sin--><g class="link" data-entity-1="ent0004" data-entity-2="ent0005" data-link-type="dependency" data-source-line="8" id="lnk3"><path d="M123.19,117.21 C113.02,131.11 88.2626,164.9574 69.4326,190.6974" fill="none" id="entry2-to-sin" style="stroke:#181818;stroke-width:1;"/><polygon fill="#181818" points="65.89,195.54,74.4322,190.6379,68.8421,191.5045,67.9755,185.9145,65.89,195.54" style="stroke:#181818;stroke-width:1;"/></g><!--link sin to sin2--><g class="link" data-entity-1="ent0005" data-entity-2="ent0004" data-link-type="dependency" data-source-line="9" id="lnk5"><path d="M73.23,221 C84.75,221 90.27,221 101.79,221" fill="none" id="sin-to-sin2" style="stroke:#181818;stroke-width:1;"/><polygon fill="#181818" points="107.79,221,98.79,217,102.79,221,98.79,225,107.79,221" style="stroke:#181818;stroke-width:1;"/></g><!--link sin2 to exitA--><g class="link" data-entity-1="ent0004" data-entity-2="ent0006" data-link-type="dependency" data-source-line="10" id="lnk6"><path d="M133,246.32 C133,266.7 133,288.25 133,299.68" fill="none" id="sin2-to-exitA" style="stroke:#181818;stroke-width:1;"/><polygon fill="#181818" points="133,305.68,137,296.68,133,300.68,129,296.68,133,305.68" style="stroke:#181818;stroke-width:1;"/></g><!--link *start* to entry1--><g class="link" data-entity-1="ent0007" data-entity-2="ent0003" data-link-type="dependency" data-source-line="13" id="lnk8"><path d="M44,26.26 C44,45.55 44,83.54 44,98.73" fill="none" id="*start*-to-entry1" style="stroke:#181818;stroke-width:1;"/><polygon fill="#181818" points="44,104.73,48,95.73,44,99.73,40,95.73,44,104.73" style="stroke:#181818;stroke-width:1;"/></g><!--link exitA to Foo--><g class="link" data-entity-1="ent0006" data-entity-2="ent0009" data-link-type="dependency" data-source-line="14" id="lnk10"><path d="M133,318.04 C133,329.29 133,351.08 133,371.63" fill="none" id="exitA-to-Foo" style="stroke:#181818;stroke-width:1;"/><polygon fill="#181818" points="133,377.63,137,368.63,133,372.63,129,368.63,133,377.63" style="stroke:#181818;stroke-width:1;"/></g><!--link Foo1 to entry2--><g class="link" data-entity-1="ent0011" data-entity-2="ent0004" data-link-type="dependency" data-source-line="15" id="lnk12"><path d="M185.89,111 C174.34,111 168.79,111 157.24,111" fill="none" id="Foo1-to-entry2" style="stroke:#181818;stroke-width:1;"/><polygon fill="#181818" points="151.24,111,160.24,115,156.24,111,160.24,107,151.24,111" style="stroke:#181818;stroke-width:1;"/></g><?plantuml-src Aov9B4bL2CxFBL2evb9GA0PpK_DAYYeD5MniKYiA4lEAC_FpFFCAIalix51L6E5JKPoPXr1TaLdYYApOlxG4eXge16gPhguTL0_KR3WVI48vHX2U4LWns52kMYwkQArOY03O82w8PI01j_nyBY0sL8196W40?></g></svg>