<?plantuml 1.2026.1?><svg xmlns="http://www.w3.org/2000/svg" xmlns:xlink="http://www.w3.org/1999/xlink" contentStyleType="text/css" data-diagram-type="DESCRIPTION" height="965px" preserveAspectRatio="none" style="width:456px;height:965px;background:#FFFFFF;" version="1.1" viewBox="0 0 456 965" width="456px" zoomAndPan="magnify"><title>PokeAMI &#8212; Use Cases</title><defs/><g><g class="title" data-source-line="3"><text fill="#000000" font-family="Verdana" font-size="22" font-weight="bold" lengthAdjust="spacing" textLength="271.9492" x="87.5254" y="37.1182">PokeAMI &#8212; Use Cases</text></g><!--cluster PokeAMI--><g class="cluster" data-qualified-name="PokeAMI" data-source-line="12" id="ent0006"><rect fill="#FFFFFF" height="900" rx="2.5" ry="2.5" style="stroke:#000000;stroke-width:1;" width="223" x="227" y="59.7373"/><text fill="#000000" font-family="Verdana" font-size="14" font-weight="bold" lengthAdjust="spacing" textLength="70.3418" x="303.3291" y="75.8125">PokeAMI</text></g><!--entity UC1--><g class="entity" data-qualified-name="PokeAMI.UC1" data-source-line="13" id="ent0007"><ellipse cx="338.6234" cy="295.5218" fill="#FFFFFF" rx="70.6234" ry="25.2845" style="stroke:#000000;stroke-width:1;"/><text fill="#000000" font-family="Verdana" font-size="14" lengthAdjust="spacing" textLength="103.2637" x="286.9916" y="294.6455">Retrieve Meter</text><text fill="#000000" font-family="Verdana" font-size="14" lengthAdjust="spacing" textLength="63.9229" x="306.662" y="311.6601">Readings</text></g><!--entity UC2--><g class="entity" data-qualified-name="PokeAMI.UC2" data-source-line="14" id="ent0008"><ellipse cx="338.5367" cy="209.5812" fill="#FFFFFF" rx="61.0367" ry="24.8438" style="stroke:#000000;stroke-width:1;"/><text fill="#000000" font-family="Verdana" font-size="14" lengthAdjust="spacing" textLength="90.4121" x="293.3307" y="209.3971">Query Usage</text><text fill="#000000" font-family="Verdana" font-size="14" lengthAdjust="spacing" textLength="42.4512" x="317.3111" y="226.4117">Points</text></g><!--entity UC3--><g class="entity" data-qualified-name="PokeAMI.UC3" data-source-line="15" id="ent0009"><ellipse cx="338.7363" cy="729.6282" fill="#FFFFFF" rx="66.7363" ry="25.3909" style="stroke:#000000;stroke-width:1;"/><text fill="#000000" font-family="Verdana" font-size="14" lengthAdjust="spacing" textLength="96.8652" x="290.3037" y="728.5876">View Demand</text><text fill="#000000" font-family="Verdana" font-size="14" lengthAdjust="spacing" textLength="62.9111" x="307.2807" y="745.6023">Analytics</text></g><!--entity UC4--><g class="entity" data-qualified-name="PokeAMI.UC4" data-source-line="16" id="ent0010"><ellipse cx="338.31" cy="469.7833" fill="#FFFFFF" rx="63.31" ry="25.546" style="stroke:#000000;stroke-width:1;"/><text fill="#000000" font-family="Verdana" font-size="14" lengthAdjust="spacing" textLength="91.0273" x="292.7963" y="468.5052">View Voltage</text><text fill="#000000" font-family="Verdana" font-size="14" lengthAdjust="spacing" textLength="62.9111" x="306.8544" y="485.5199">Analytics</text></g><!--entity UC5--><g class="entity" data-qualified-name="PokeAMI.UC5" data-source-line="17" id="ent0011"><ellipse cx="338.3381" cy="556.903" fill="#FFFFFF" rx="83.8381" ry="26.6657" style="stroke:#000000;stroke-width:1;"/><text fill="#000000" font-family="Verdana" font-size="14" lengthAdjust="spacing" textLength="108.2334" x="284.2214" y="552.8373">Check Revenue</text><text fill="#000000" font-family="Verdana" font-size="14" lengthAdjust="spacing" textLength="116.2383" x="280.2189" y="569.852">Protection Alerts</text></g><!--entity UC6--><g class="entity" data-qualified-name="PokeAMI.UC6" data-source-line="18" id="ent0012"><ellipse cx="338.5124" cy="382.7397" fill="#FFFFFF" rx="74.0124" ry="26.5024" style="stroke:#000000;stroke-width:1;"/><text fill="#000000" font-family="Verdana" font-size="14" lengthAdjust="spacing" textLength="92.627" x="292.199" y="378.4382">List Available</text><text fill="#000000" font-family="Verdana" font-size="14" lengthAdjust="spacing" textLength="102.8193" x="287.1028" y="395.4528">Reading Types</text></g><!--entity UC7--><g class="entity" data-qualified-name="PokeAMI.UC7" data-source-line="19" id="ent0013"><ellipse cx="338.7037" cy="122.5948" fill="#FFFFFF" rx="77.7037" ry="26.3575" style="stroke:#000000;stroke-width:1;"/><text fill="#000000" font-family="Verdana" font-size="14" lengthAdjust="spacing" textLength="95.0059" x="291.2007" y="118.0825">Get Validated</text><text fill="#000000" font-family="Verdana" font-size="14" lengthAdjust="spacing" textLength="108.835" x="284.2862" y="135.0972">(VEE) Readings</text></g><!--entity UC8--><g class="entity" data-qualified-name="PokeAMI.UC8" data-source-line="20" id="ent0014"><ellipse cx="338.5723" cy="643.5029" fill="#FFFFFF" rx="68.5723" ry="24.7656" style="stroke:#000000;stroke-width:1;"/><text fill="#000000" font-family="Verdana" font-size="14" lengthAdjust="spacing" textLength="102.5186" x="287.313" y="643.4439">Query Interval</text><text fill="#000000" font-family="Verdana" font-size="14" lengthAdjust="spacing" textLength="44.8096" x="316.1675" y="660.4586">Blocks</text></g><!--entity UC9--><g class="entity" data-qualified-name="PokeAMI.UC9" data-source-line="21" id="ent0015"><ellipse cx="338.6186" cy="918.7217" fill="#FFFFFF" rx="95.6186" ry="24.4844" style="stroke:#000000;stroke-width:1;"/><text fill="#000000" font-family="Verdana" font-size="14" lengthAdjust="spacing" textLength="146.6992" x="265.269" y="919.1184">Request On-Demand</text><text fill="#000000" font-family="Verdana" font-size="14" lengthAdjust="spacing" textLength="42.499" x="317.3691" y="936.133">Reads</text></g><!--entity UC10--><g class="entity" data-qualified-name="PokeAMI.UC10" data-source-line="22" id="ent0016"><ellipse cx="338.5469" cy="816.8462" fill="#FFFFFF" rx="75.0469" ry="26.1089" style="stroke:#000000;stroke-width:1;"/><text fill="#000000" font-family="Verdana" font-size="14" lengthAdjust="spacing" textLength="87.2402" x="294.9268" y="811.9687">Poll Delivery</text><text fill="#000000" font-family="Verdana" font-size="14" lengthAdjust="spacing" textLength="106.0938" x="285.5" y="828.9833">Promise Status</text></g><!--entity Analyst--><g class="entity" data-qualified-name="Analyst" data-source-line="7" id="ent0002"><ellipse cx="60.894" cy="373.7373" fill="#FFFFFF" rx="8" ry="8" style="stroke:#000000;stroke-width:1;"/><path d="M60.894,381.7373 L60.894,408.7373 M47.894,389.7373 L73.894,389.7373 M60.894,408.7373 L47.894,423.7373 M60.894,408.7373 L73.894,423.7373" fill="none" style="stroke:#000000;stroke-width:1;"/><text fill="#000000" font-family="Verdana" font-size="14" lengthAdjust="spacing" textLength="97.7881" x="12" y="439.8125">Utility Analyst</text></g><!--entity Billing--><g class="entity" data-qualified-name="Billing" data-source-line="8" id="ent0003"><ellipse cx="61.0459" cy="165.7373" fill="#FFFFFF" rx="8" ry="8" style="stroke:#000000;stroke-width:1;"/><path d="M61.0459,173.7373 L61.0459,200.7373 M48.0459,181.7373 L74.0459,181.7373 M61.0459,200.7373 L48.0459,215.7373 M61.0459,200.7373 L74.0459,215.7373" fill="none" style="stroke:#000000;stroke-width:1;"/><text fill="#000000" font-family="Verdana" font-size="14" lengthAdjust="spacing" textLength="100.0918" x="11" y="231.8125">Billing System</text></g><!--entity Grid--><g class="entity" data-qualified-name="Grid" data-source-line="9" id="ent0004"><ellipse cx="60.8848" cy="601.7373" fill="#FFFFFF" rx="8" ry="8" style="stroke:#000000;stroke-width:1;"/><path d="M60.8848,609.7373 L60.8848,636.7373 M47.8848,617.7373 L73.8848,617.7373 M60.8848,636.7373 L47.8848,651.7373 M60.8848,636.7373 L73.8848,651.7373" fill="none" style="stroke:#000000;stroke-width:1;"/><text fill="#000000" font-family="Verdana" font-size="14" lengthAdjust="spacing" textLength="96.7695" x="12.5" y="667.8125">Grid Operator</text></g><!--entity Field--><g class="entity" data-qualified-name="Field" data-source-line="10" id="ent0005"><ellipse cx="60.875" cy="778.2373" fill="#FFFFFF" rx="8" ry="8" style="stroke:#000000;stroke-width:1;"/><path d="M60.875,786.2373 L60.875,813.2373 M47.875,794.2373 L73.875,794.2373 M60.875,813.2373 L47.875,828.2373 M60.875,813.2373 L73.875,828.2373" fill="none" style="stroke:#000000;stroke-width:1;"/><text fill="#000000" font-family="Verdana" font-size="14" lengthAdjust="spacing" textLength="62.0225" x="28.5" y="844.3125">DERMS /</text><text fill="#000000" font-family="Verdana" font-size="14" lengthAdjust="spacing" textLength="64.75" x="28.5" y="861.3271">Field Ops</text></g><!--link Analyst to UC1--><g class="link" data-entity-1="ent0002" data-entity-2="ent0007" data-link-type="dependency" data-source-line="25" id="lnk17"><path d="M110.37,382.6673 C120.47,378.3373 131.07,373.8473 141,369.7373 C175.47,355.4773 184.13,351.9873 219,338.7373 C241.4,330.2273 260.6751,323.1608 281.8551,315.5308" fill="none" id="Analyst-to-UC1" style="stroke:#000000;stroke-width:1;"/><polygon fill="#000000" points="287.5,313.4973,277.677,312.7844,282.7959,315.1919,280.3884,320.3109,287.5,313.4973" style="stroke:#000000;stroke-width:1;"/></g><!--link Analyst to UC2--><g class="link" data-entity-1="ent0002" data-entity-2="ent0008" data-link-type="dependency" data-source-line="26" id="lnk18"><path d="M94.23,364.5973 C123.7,330.9773 170.05,283.2273 219,252.7373 C239.71,239.8373 259.1458,231.8469 280.9458,224.8669" fill="none" id="Analyst-to-UC2" style="stroke:#000000;stroke-width:1;"/><polygon fill="#000000" points="286.66,223.0373,276.8689,221.9722,281.8981,224.562,279.3084,229.5912,286.66,223.0373" style="stroke:#000000;stroke-width:1;"/></g><!--link Analyst to UC3--><g class="link" data-entity-1="ent0002" data-entity-2="ent0009" data-link-type="dependency" data-source-line="27" id="lnk19"><path d="M88.32,442.8873 C126.5,500.2773 194.5,604.9673 211,646.7373 C217.5,663.1973 207.48,672.3073 219,685.7373 C233.78,702.9773 250.2343,711.749 271.4443,718.129" fill="none" id="Analyst-to-UC3" style="stroke:#000000;stroke-width:1;"/><polygon fill="#000000" points="277.19,719.8573,269.7237,713.4344,272.4019,718.417,267.4193,721.0953,277.19,719.8573" style="stroke:#000000;stroke-width:1;"/></g><!--link Analyst to UC4--><g class="link" data-entity-1="ent0002" data-entity-2="ent0010" data-link-type="dependency" data-source-line="28" id="lnk20"><path d="M110.3,415.3073 C158.76,426.9173 227.395,443.36 277.755,455.42" fill="none" id="Analyst-to-UC4" style="stroke:#000000;stroke-width:1;"/><polygon fill="#000000" points="283.59,456.8173,275.769,450.8313,278.7275,455.6529,273.9059,458.6113,283.59,456.8173" style="stroke:#000000;stroke-width:1;"/></g><!--link Analyst to UC5--><g class="link" data-entity-1="ent0002" data-entity-2="ent0011" data-link-type="dependency" data-source-line="29" id="lnk21"><path d="M110.18,443.0673 C120.2,450.8073 130.81,458.7073 141,465.7373 C174.32,488.7173 182.54,495.1673 219,512.7373 C238.28,522.0273 254.4175,528.577 273.9975,535.657" fill="none" id="Analyst-to-UC5" style="stroke:#000000;stroke-width:1;"/><polygon fill="#000000" points="279.64,537.6973,272.5365,530.8753,274.938,535.9971,269.8161,538.3985,279.64,537.6973" style="stroke:#000000;stroke-width:1;"/></g><!--link Analyst to UC6--><g class="link" data-entity-1="ent0002" data-entity-2="ent0012" data-link-type="dependency" data-source-line="30" id="lnk22"><path d="M110.3,400.0573 C153.36,396.7773 210.9673,392.383 259.9373,388.653" fill="none" id="Analyst-to-UC6" style="stroke:#000000;stroke-width:1;"/><polygon fill="#000000" points="265.92,388.1973,256.6422,384.8924,260.9344,388.5771,257.2498,392.8693,265.92,388.1973" style="stroke:#000000;stroke-width:1;"/></g><!--link Billing to UC1--><g class="link" data-entity-1="ent0003" data-entity-2="ent0007" data-link-type="dependency" data-source-line="32" id="lnk23"><path d="M111.42,223.9573 C121.06,228.9073 131.22,233.7473 141,237.7373 C186.28,256.2373 233.7908,270.0963 273.4608,280.3463" fill="none" id="Billing-to-UC1" style="stroke:#000000;stroke-width:1;"/><polygon fill="#000000" points="279.27,281.8473,271.5568,275.723,274.429,280.5965,269.5555,283.4686,279.27,281.8473" style="stroke:#000000;stroke-width:1;"/></g><!--link Billing to UC7--><g class="link" data-entity-1="ent0003" data-entity-2="ent0013" data-link-type="dependency" data-source-line="33" id="lnk24"><path d="M111.25,182.6873 C157.53,170.4273 221.12,153.5736 270.84,140.4036" fill="none" id="Billing-to-UC7" style="stroke:#000000;stroke-width:1;"/><polygon fill="#000000" points="276.64,138.8673,266.9158,137.3051,271.8067,140.1476,268.9642,145.0384,276.64,138.8673" style="stroke:#000000;stroke-width:1;"/></g><!--link Billing to UC2--><g class="link" data-entity-1="ent0003" data-entity-2="ent0008" data-link-type="dependency" data-source-line="34" id="lnk25"><path d="M111.25,198.2373 C157.84,200.6073 221.8577,203.8628 271.6377,206.3928" fill="none" id="Billing-to-UC2" style="stroke:#000000;stroke-width:1;"/><polygon fill="#000000" points="277.63,206.6973,268.8446,202.2456,272.6364,206.4435,268.4386,210.2353,277.63,206.6973" style="stroke:#000000;stroke-width:1;"/></g><!--link Grid to UC4--><g class="link" data-entity-1="ent0004" data-entity-2="ent0010" data-link-type="dependency" data-source-line="36" id="lnk26"><path d="M106.22,592.4673 C136.39,567.1673 178.14,534.9673 219,512.7373 C240.15,501.2273 259.3082,493.5755 280.7782,486.4155" fill="none" id="Grid-to-UC4" style="stroke:#000000;stroke-width:1;"/><polygon fill="#000000" points="286.47,484.5173,276.6668,483.57,281.7268,486.0991,279.1977,491.1591,286.47,484.5173" style="stroke:#000000;stroke-width:1;"/></g><!--link Grid to UC3--><g class="link" data-entity-1="ent0004" data-entity-2="ent0009" data-link-type="dependency" data-source-line="37" id="lnk27"><path d="M109.67,648.6973 C159.88,666.5573 232.8672,692.5158 283.3672,710.4858" fill="none" id="Grid-to-UC3" style="stroke:#000000;stroke-width:1;"/><polygon fill="#000000" points="289.02,712.4973,281.8818,705.7115,284.3094,710.8211,279.1998,713.2486,289.02,712.4973" style="stroke:#000000;stroke-width:1;"/></g><!--link Grid to UC5--><g class="link" data-entity-1="ent0004" data-entity-2="ent0011" data-link-type="dependency" data-source-line="38" id="lnk28"><path d="M109.67,618.7573 C155.26,606.3473 218.4905,589.1326 268.6205,575.4926" fill="none" id="Grid-to-UC5" style="stroke:#000000;stroke-width:1;"/><polygon fill="#000000" points="274.41,573.9173,264.6755,572.4206,269.5854,575.23,266.7759,580.1399,274.41,573.9173" style="stroke:#000000;stroke-width:1;"/></g><!--link Grid to UC8--><g class="link" data-entity-1="ent0004" data-entity-2="ent0014" data-link-type="dependency" data-source-line="39" id="lnk29"><path d="M109.67,633.8173 C154.03,635.7473 214.5757,638.3869 264.3057,640.5469" fill="none" id="Grid-to-UC8" style="stroke:#000000;stroke-width:1;"/><polygon fill="#000000" points="270.3,640.8073,261.4821,636.4205,265.3047,640.5903,261.1349,644.413,270.3,640.8073" style="stroke:#000000;stroke-width:1;"/></g><!--link Field to UC9--><g class="link" data-entity-1="ent0005" data-entity-2="ent0015" data-link-type="dependency" data-source-line="41" id="lnk30"><path d="M93.6,828.4373 C139.89,845.5773 221.1232,875.6542 277.7132,896.6042" fill="none" id="Field-to-UC9" style="stroke:#000000;stroke-width:1;"/><polygon fill="#000000" points="283.34,898.6873,276.2885,891.8115,278.651,896.9514,273.5111,899.3139,283.34,898.6873" style="stroke:#000000;stroke-width:1;"/></g><!--link Field to UC10--><g class="link" data-entity-1="ent0005" data-entity-2="ent0016" data-link-type="dependency" data-source-line="42" id="lnk31"><path d="M93.6,816.7373 C134.73,816.7373 201.9,816.7373 257.39,816.7373" fill="none" id="Field-to-UC10" style="stroke:#000000;stroke-width:1;"/><polygon fill="#000000" points="263.39,816.7373,254.39,812.7373,258.39,816.7373,254.39,820.7373,263.39,816.7373" style="stroke:#000000;stroke-width:1;"/></g><!--link Field to UC3--><g class="link" data-entity-1="ent0005" data-entity-2="ent0009" data-link-type="dependency" data-source-line="43" id="lnk32"><path d="M93.86,806.1173 C108.25,801.3573 125.46,795.7073 141,790.7373 C189.99,775.0673 240.3039,759.487 279.9739,747.317" fill="none" id="Field-to-UC3" style="stroke:#000000;stroke-width:1;"/><polygon fill="#000000" points="285.71,745.5573,275.9326,744.3728,280.9299,747.0238,278.2789,752.021,285.71,745.5573" style="stroke:#000000;stroke-width:1;"/></g><!--link UC7 to UC1--><g class="link" data-entity-1="ent0013" data-entity-2="ent0007" data-link-type="dependency" data-source-line="45" id="lnk33"><path d="M274.62,137.9173 C213.22,155.6873 134.34,188.8373 168,236.2373 C190.96,268.5773 226.9617,282.3774 263.4817,289.1874" fill="none" id="UC7-to-UC1" style="stroke:#000000;stroke-width:1;stroke-dasharray:7,7;"/><polygon fill="#000000" points="269.38,290.2873,261.2658,284.7053,264.4647,289.3707,259.7993,292.5697,269.38,290.2873" style="stroke:#000000;stroke-width:1;"/><text fill="#000000" font-family="Verdana" font-size="13" lengthAdjust="spacing" textLength="68.1611" x="142" y="233.3071">&#171;extends&#187;</text></g><!--link UC8 to UC1--><g class="link" data-entity-1="ent0014" data-entity-2="ent0007" data-link-type="dependency" data-source-line="46" id="lnk34"><path d="M276.93,632.5573 C256.35,626.1873 234.69,616.2373 219,600.7373 C167.86,550.2173 152.33,517.3973 168,447.2373 C179.61,395.2373 179.59,374.6073 219,338.7373 C234.98,324.1973 250.5256,316.3165 270.6756,309.8665" fill="none" id="UC8-to-UC1" style="stroke:#000000;stroke-width:1;stroke-dasharray:7,7;"/><polygon fill="#000000" points="276.39,308.0373,266.599,306.9715,271.628,309.5616,269.0379,314.5906,276.39,308.0373" style="stroke:#000000;stroke-width:1;"/><text fill="#000000" font-family="Verdana" font-size="13" lengthAdjust="spacing" textLength="68.1611" x="142" y="461.3071">&#171;extends&#187;</text></g><!--link UC10 to UC9--><g class="link" data-entity-1="ent0016" data-entity-2="ent0015" data-link-type="dependency" data-source-line="47" id="lnk35"><path d="M338.5,842.9873 C338.5,858.7173 338.5,872.5973 338.5,888.0473" fill="none" id="UC10-to-UC9" style="stroke:#000000;stroke-width:1;stroke-dasharray:7,7;"/><polygon fill="#000000" points="338.5,894.0473,342.5,885.0473,338.5,889.0473,334.5,885.0473,338.5,894.0473" style="stroke:#000000;stroke-width:1;"/><text fill="#000000" font-family="Verdana" font-size="13" lengthAdjust="spacing" textLength="68.1611" x="293" y="874.0571">&#171;extends&#187;</text></g><?plantuml-src TL9DRzf04BtlhvZwr1ve4mW9L14I8JIAL1G2XPClMtiA8vPTkZkcHLMb_eZ-mlwIhDSimbRgaz_Ccu_tTjxm6hS8EoL92y742c5gDZYSFCA_FtzXuH16qg4JGk4t1ZPWQRLcoCbYncHybSpOM4WMJ8hu04CjrS5n0jB5_qYv8wL8hs3kOxWDZ6CeCXuivV2qGoiz38Go4hFtuzba3XzI_ObGbJmNA049KIuazSehI8uI4lWbm7-5myoBW6I6R0dt21DajAcUeSpzzAhDOdHPPpyNQ0_U0hd2L4yDQOx4Tfsu9Fm1zxYLEazrqCoKHMxd5UxIA0vTc-IhEdcqncm3Cx-nBieThE7ATHWgjATrklMgp-GOXdj9IdvLU589NmuxZ2NNzP87P5XAHRbaz1hUBiVZTz1mv-OrTnwrDt8lLQhlbCasaTjh-lwzGB_Kasv5cyhcaTsliwT6AM-dehsV45HloSVdBBauFTM5-2t4yRwWrHg4vwlZTWDt6lYgWRiDV2r4lDWue8vl6hWjH3ZWsFuCTCv1znpqXAZEkOBz6l8ops5723yLteSKV8JRM_p9g7Ct6FX4xt-9ouigqszaNW00?></g></svg>