<?plantuml 1.2026.1?><svg xmlns="http://www.w3.org/2000/svg" xmlns:xlink="http://www.w3.org/1999/xlink" contentStyleType="text/css" data-diagram-type="DESCRIPTION" height="2471px" preserveAspectRatio="none" style="width:621px;height:2471px;background:#FEFEFE;" version="1.1" viewBox="0 0 621 2471" width="621px" zoomAndPan="magnify"><title>**FIG. 8 &#8212; Brovkex Tulwra Gempatio Jondeptim**</title><defs/><g><rect fill="#FEFEFE" height="2471" style="stroke:none;stroke-width:1;" width="621" x="0" y="0"/><g class="title" data-source-line="12"><text fill="#000000" font-family="Arial" font-size="22" font-weight="bold" lengthAdjust="spacing" textLength="484.0967" x="64.4158" y="35.6357">FIG. 8 &#8212; Brovkex Tulwra Gempatio Jondeptim</text></g><!--cluster FONTES--><g class="cluster" data-qualified-name="FONTES" data-source-line="14" id="ent0002"><rect fill="#F0F0FF" height="92" rx="4" ry="4" style="stroke:#000000;stroke-width:1;" width="513" x="25" y="58.2979"/><text fill="#000000" font-family="Arial" font-size="11" font-weight="bold" lengthAdjust="spacing" textLength="82.5161" x="240.2419" y="70.6157">Zriquex Vonpas</text></g><!--cluster GENERATRIX--><g class="cluster" data-qualified-name="GENERATRIX" data-source-line="21" id="ent0007"><rect fill="#FFE8CC" height="635" rx="4" ry="4" style="stroke:#000000;stroke-width:1;" width="207" x="141" y="183.2979"/><text fill="#000000" font-family="Arial" font-size="11" font-weight="bold" lengthAdjust="spacing" textLength="91.6953" x="198.6523" y="195.6157">Kodwy Ginerazyx</text><text fill="#000000" font-family="Arial" font-size="11" font-weight="bold" lengthAdjust="spacing" textLength="191.3398" x="148.8301" y="208.2646">(Zerabwix &#8212; lotakis GPU vel hirtava)</text></g><!--cluster VALIDATRIX--><g class="cluster" data-qualified-name="VALIDATRIX" data-source-line="36" id="ent0019"><rect fill="#FFF0F0" height="369" rx="4" ry="4" style="stroke:#000000;stroke-width:1;" width="188" x="150" y="877.2979"/><text fill="#000000" font-family="Arial" font-size="11" font-weight="bold" lengthAdjust="spacing" textLength="138.123" x="174.9385" y="889.6157">Orbax Syntoqus Volodatio</text><text fill="#000000" font-family="Arial" font-size="11" font-weight="bold" lengthAdjust="spacing" textLength="171.7676" x="158.1162" y="902.2646">(Stovix Onakyx &#8212; Nolla Ixecutio)</text></g><!--cluster ARENATUS--><g class="cluster" data-qualified-name="ARENATUS" data-source-line="45" id="ent0025"><rect fill="#E8F0FF" height="425" rx="4" ry="4" style="stroke:#000000;stroke-width:1;" width="225" x="128" y="1686.7979"/><text fill="#000000" font-family="Arial" font-size="11" font-weight="bold" lengthAdjust="spacing" textLength="96.5723" x="192.2139" y="1699.1157">Orenoqus Ixecutio</text><text fill="#000000" font-family="Arial" font-size="11" font-weight="bold" lengthAdjust="spacing" textLength="113.0454" x="183.9773" y="1711.7646">(Kontinens Isoloqum)</text></g><!--cluster INSPECTIO--><g class="cluster" data-qualified-name="INSPECTIO" data-source-line="54" id="ent0031"><rect fill="#FFF0E0" height="311.5" rx="4" ry="4" style="stroke:#000000;stroke-width:1;" width="221" x="12" y="1313.2979"/><text fill="#000000" font-family="Arial" font-size="11" font-weight="bold" lengthAdjust="spacing" textLength="135.0884" x="54.9558" y="1325.6157">Homanis Inspektio Portyx</text><text fill="#000000" font-family="Arial" font-size="11" font-weight="bold" lengthAdjust="spacing" textLength="115.5215" x="64.7393" y="1338.2646">(Promus tulwra typas)</text></g><!--cluster REGISTRUM--><g class="cluster" data-qualified-name="REGISTRUM" data-source-line="61" id="ent0035"><rect fill="#F0FFF0" height="279" rx="4" ry="4" style="stroke:#000000;stroke-width:1;" width="233" x="105" y="2186.7979"/><text fill="#000000" font-family="Arial" font-size="11" font-weight="bold" lengthAdjust="spacing" textLength="97.1792" x="172.9104" y="2199.1157">Tulwra Registwom</text></g><!--entity src1--><g class="entity" data-qualified-name="FONTES.src1" data-source-line="15" id="ent0003"><rect fill="#E0E0FF" height="45.2979" rx="4" ry="4" style="stroke:#000000;stroke-width:1;" width="97.6392" x="41" y="89.2979"/><text fill="#000000" font-family="Arial" font-size="11" lengthAdjust="spacing" textLength="70.2969" x="51" y="109.6157">Kwertam API /</text><text fill="#000000" font-family="Arial" font-size="11" lengthAdjust="spacing" textLength="77.6392" x="51" y="122.2646">Doscwipex Zpol</text></g><!--entity src2--><g class="entity" data-qualified-name="FONTES.src2" data-source-line="16" id="ent0004"><rect fill="#E0E0FF" height="45.2979" rx="4" ry="4" style="stroke:#000000;stroke-width:1;" width="62.1899" x="174" y="89.2979"/><text fill="#000000" font-family="Arial" font-size="11" lengthAdjust="spacing" textLength="42.1899" x="184" y="109.6157">Grophax</text><text fill="#000000" font-family="Arial" font-size="11" lengthAdjust="spacing" textLength="33.0054" x="184" y="122.2646">Skijma</text></g><!--entity src3--><g class="entity" data-qualified-name="FONTES.src3" data-source-line="17" id="ent0005"><rect fill="#E0E0FF" height="45.2979" rx="4" ry="4" style="stroke:#000000;stroke-width:1;" width="105.5669" x="271" y="89.2979"/><text fill="#000000" font-family="Arial" font-size="11" lengthAdjust="spacing" textLength="77.0215" x="281" y="109.6157">Prothilum Daws</text><text fill="#000000" font-family="Arial" font-size="11" lengthAdjust="spacing" textLength="85.5669" x="281" y="122.2646">(Porywis/Talgum)</text></g><!--entity src4--><g class="entity" data-qualified-name="FONTES.src4" data-source-line="18" id="ent0006"><rect fill="#E0E0FF" height="45.2979" rx="4" ry="4" style="stroke:#000000;stroke-width:1;" width="109.8638" x="412" y="89.2979"/><text fill="#000000" font-family="Arial" font-size="11" lengthAdjust="spacing" textLength="47.6792" x="422" y="109.6157">Ixmaplom</text><text fill="#000000" font-family="Arial" font-size="11" lengthAdjust="spacing" textLength="89.8638" x="422" y="122.2646">Trasoam / Kalpom</text></g><!--entity cg1--><g class="entity" data-qualified-name="GENERATRIX.cg1" data-source-line="22" id="ent0008"><rect fill="#FFF0DD" height="45.2979" rx="4" ry="4" style="stroke:#000000;stroke-width:1;" width="123.9199" x="182" y="227.2979"/><text fill="#000000" font-family="Arial" font-size="11" lengthAdjust="spacing" textLength="89.2515" x="192" y="247.6157">Porsili API zriquex</text><text fill="#000000" font-family="Arial" font-size="11" lengthAdjust="spacing" textLength="103.9199" x="192" y="260.2646">in strokpam midollam</text></g><!--entity cg2--><g class="entity" data-qualified-name="GENERATRIX.cg2" data-source-line="23" id="ent0009"><rect fill="#FFF0DD" height="45.2979" rx="4" ry="4" style="stroke:#000000;stroke-width:1;" width="106.8237" x="190.5" y="333.2979"/><text fill="#000000" font-family="Arial" font-size="11" lengthAdjust="spacing" textLength="86.8237" x="200.5" y="353.6157">Ginerale typobam</text><text fill="#000000" font-family="Arial" font-size="11" lengthAdjust="spacing" textLength="65.4038" x="200.5" y="366.2646">tulwra klaksis</text></g><!--entity cg3--><g class="entity" data-qualified-name="GENERATRIX.cg3" data-source-line="24" id="ent0010"><rect fill="#FFF0DD" height="45.2979" rx="4" ry="4" style="stroke:#000000;stroke-width:1;" width="109.8745" x="189" y="439.2979"/><text fill="#000000" font-family="Arial" font-size="11" lengthAdjust="spacing" textLength="89.8745" x="199" y="459.6157">Ginerale volidazyx</text><text fill="#000000" font-family="Arial" font-size="11" lengthAdjust="spacing" textLength="69.6899" x="199" y="472.2646">dowum midolli</text></g><!--entity cg4--><g class="entity" data-qualified-name="GENERATRIX.cg4" data-source-line="25" id="ent0011"><rect fill="#FFF0DD" height="45.2979" rx="4" ry="4" style="stroke:#000000;stroke-width:1;" width="155.0938" x="166.5" y="545.2979"/><text fill="#000000" font-family="Arial" font-size="11" lengthAdjust="spacing" textLength="118.0137" x="176.5" y="565.6157">Ginerale euthonex flixas</text><text fill="#000000" font-family="Arial" font-size="11" lengthAdjust="spacing" textLength="135.0938" x="176.5" y="578.2646">(Sigollam, Kloves, Zerolam)</text></g><!--entity cg5--><g class="entity" data-qualified-name="GENERATRIX.cg5" data-source-line="26" id="ent0012"><rect fill="#FFF0DD" height="45.2979" rx="4" ry="4" style="stroke:#000000;stroke-width:1;" width="112.9575" x="187.5" y="651.2979"/><text fill="#000000" font-family="Arial" font-size="11" lengthAdjust="spacing" textLength="92.9575" x="197.5" y="671.6157">Ginerale pogonatio</text><text fill="#000000" font-family="Arial" font-size="11" lengthAdjust="spacing" textLength="89.2622" x="197.5" y="684.2646">&amp; friqentia lomotor</text></g><!--entity cg6--><g class="entity" data-qualified-name="GENERATRIX.cg6" data-source-line="27" id="ent0013"><rect fill="#FFF0DD" height="45.2979" rx="4" ry="4" style="stroke:#000000;stroke-width:1;" width="104.3853" x="192" y="757.2979"/><text fill="#000000" font-family="Arial" font-size="11" lengthAdjust="spacing" textLength="84.3853" x="202" y="777.6157">Ginerale probotio</text><text fill="#000000" font-family="Arial" font-size="11" lengthAdjust="spacing" textLength="54.4253" x="202" y="790.2646">findamonta</text></g><!--entity v1--><g class="entity" data-qualified-name="VALIDATRIX.v1" data-source-line="37" id="ent0020"><rect fill="#FFE0E0" height="32.6489" rx="4" ry="4" style="stroke:#000000;stroke-width:1;" width="131.8799" x="178" y="921.2979"/><text fill="#000000" font-family="Arial" font-size="11" lengthAdjust="spacing" textLength="111.8799" x="188" y="941.6157">Porsili Orbax Syntoqus</text></g><!--entity v2--><g class="entity" data-qualified-name="VALIDATRIX.v2" data-source-line="38" id="ent0021"><rect fill="#FFE0E0" height="95.8936" rx="4" ry="4" style="stroke:#000000;stroke-width:1;" width="155.7222" x="166" y="1015.2979"/><text fill="#000000" font-family="Arial" font-size="11" font-weight="bold" lengthAdjust="spacing" textLength="120.4038" x="176" y="1035.6157">RIJEKTARE si kontilat:</text><text fill="#000000" font-family="Arial" font-size="11" lengthAdjust="spacing" textLength="73.9546" x="176" y="1048.2646">- eval() / exec()</text><text fill="#000000" font-family="Arial" font-size="11" lengthAdjust="spacing" textLength="135.7222" x="176" y="1060.9136">- subprosessas / os.systova</text><text fill="#000000" font-family="Arial" font-size="11" lengthAdjust="spacing" textLength="108.7969" x="176" y="1073.5625">- skriptio ixtra oremam</text><text fill="#000000" font-family="Arial" font-size="11" lengthAdjust="spacing" textLength="108.8076" x="176" y="1086.2114">- retox ixtra permossio</text><text fill="#000000" font-family="Arial" font-size="11" lengthAdjust="spacing" textLength="132.6606" x="176" y="1098.8604">- importale vetotam modoki</text></g><!--entity v3--><g class="entity" data-qualified-name="VALIDATRIX.v3" data-source-line="39" id="ent0022"><rect fill="#FFE0E0" height="57.9468" rx="4" ry="4" style="stroke:#000000;stroke-width:1;" width="144.7275" x="171.5" y="1172.2979"/><text fill="#000000" font-family="Arial" font-size="11" lengthAdjust="spacing" textLength="124.7275" x="181.5" y="1192.6157">Verificole: typova retorna,</text><text fill="#000000" font-family="Arial" font-size="11" lengthAdjust="spacing" textLength="82.5269" x="181.5" y="1205.2646">erroxam trocatio,</text><text fill="#000000" font-family="Arial" font-size="11" lengthAdjust="spacing" textLength="76.4253" x="181.5" y="1217.9136">tempox ixecutio</text></g><!--entity sb1--><g class="entity" data-qualified-name="ARENATUS.sb1" data-source-line="46" id="ent0026"><rect fill="#CCE0FF" height="95.8936" rx="4" ry="4" style="stroke:#000000;stroke-width:1;" width="156.9414" x="152.5" y="1738.7979"/><text fill="#000000" font-family="Arial" font-size="11" lengthAdjust="spacing" textLength="122.896" x="162.5" y="1759.1157">Kontinens isoloqum kum:</text><text fill="#000000" font-family="Arial" font-size="11" lengthAdjust="spacing" textLength="115.5215" x="162.5" y="1771.7646">- CPU/memovia limotes</text><text fill="#000000" font-family="Arial" font-size="11" lengthAdjust="spacing" textLength="136.9414" x="162.5" y="1784.4136">- Retox egressas permossio</text><text fill="#000000" font-family="Arial" font-size="11" lengthAdjust="spacing" textLength="101.4814" x="162.5" y="1797.0625">- Tempox termonatio</text><text fill="#000000" font-family="Arial" font-size="11" lengthAdjust="spacing" textLength="121.0483" x="162.5" y="1809.7114">- Nolla persistons reposit</text><text fill="#000000" font-family="Arial" font-size="11" lengthAdjust="spacing" textLength="108.8184" x="162.5" y="1822.3604">- Lektio solam systova</text></g><!--entity sb2--><g class="entity" data-qualified-name="ARENATUS.sb2" data-source-line="47" id="ent0027"><rect fill="#CCE0FF" height="57.9468" rx="4" ry="4" style="stroke:#000000;stroke-width:1;" width="93.9707" x="184" y="1909.7979"/><text fill="#000000" font-family="Arial" font-size="11" lengthAdjust="spacing" textLength="73.9707" x="194" y="1930.1157">Tulwra ixecutat</text><text fill="#000000" font-family="Arial" font-size="11" lengthAdjust="spacing" textLength="56.853" x="194" y="1942.7646">kum brevas</text><text fill="#000000" font-family="Arial" font-size="11" lengthAdjust="spacing" textLength="69.0884" x="194" y="1955.4136">kropta signam</text></g><!--entity sb3--><g class="entity" data-qualified-name="ARENATUS.sb3" data-source-line="48" id="ent0028"><rect fill="#CCE0FF" height="45.2979" rx="4" ry="4" style="stroke:#000000;stroke-width:1;" width="144.1045" x="159" y="2042.7979"/><text fill="#000000" font-family="Arial" font-size="11" lengthAdjust="spacing" textLength="93.5645" x="169" y="2063.1157">Resulqua volodava</text><text fill="#000000" font-family="Arial" font-size="11" lengthAdjust="spacing" textLength="124.1045" x="169" y="2075.7646">kontra ixpectoqum skijma</text></g><!--entity h1--><g class="entity" data-qualified-name="INSPECTIO.h1" data-source-line="55" id="ent0032"><rect fill="#FFE0B0" height="45.2979" rx="4" ry="4" style="stroke:#000000;stroke-width:1;" width="153.9121" x="55" y="1365.2979"/><text fill="#000000" font-family="Arial" font-size="11" lengthAdjust="spacing" textLength="107.6045" x="65" y="1385.6157">Qualifokatis operatwix</text><text fill="#000000" font-family="Arial" font-size="11" lengthAdjust="spacing" textLength="133.9121" x="65" y="1398.2646">inspokat generoqum kodwy</text></g><!--entity h2--><g class="entity" data-qualified-name="INSPECTIO.h2" data-source-line="56" id="ent0033"><rect fill="#FFE0B0" height="70.5957" rx="4" ry="4" style="stroke:#000000;stroke-width:1;" width="145.3506" x="61.5" y="1529.7979"/><text fill="#000000" font-family="Arial" font-size="11" lengthAdjust="spacing" textLength="85.5938" x="71.5" y="1550.1157">Operatwix potekt:</text><text fill="#000000" font-family="Arial" font-size="11" lengthAdjust="spacing" textLength="101.4976" x="71.5" y="1562.7646">- Approbale intaktom</text><text fill="#000000" font-family="Arial" font-size="11" lengthAdjust="spacing" textLength="125.3506" x="71.5" y="1575.4136">- Modifokare et approbale</text><text fill="#000000" font-family="Arial" font-size="11" lengthAdjust="spacing" textLength="50.123" x="71.5" y="1588.0625">- Rijektare</text></g><!--entity reg_dyn--><g class="entity" data-qualified-name="REGISTRUM.reg_dyn" data-source-line="62" id="ent0036"><rect fill="#E0FFE0" height="45.2979" rx="4" ry="4" style="stroke:#000000;stroke-width:1;" width="165.5029" x="148" y="2225.7979"/><text fill="#000000" font-family="Arial" font-size="11" font-weight="bold" lengthAdjust="spacing" textLength="127.1606" x="158" y="2246.1157">Brovkex / Ixperimontalis</text><text fill="#000000" font-family="Arial" font-size="11" lengthAdjust="spacing" textLength="145.5029" x="158" y="2258.7646">(rikworit approbatio per typas)</text></g><!--entity reg_perm--><g class="entity" data-qualified-name="REGISTRUM.reg_perm" data-source-line="63" id="ent0037"><rect fill="#CCFFCC" height="57.9468" rx="4" ry="4" style="stroke:#000000;stroke-width:1;" width="159.3691" x="148.5" y="2383.7979"/><text fill="#000000" font-family="Arial" font-size="11" font-weight="bold" lengthAdjust="spacing" textLength="139.3691" x="158.5" y="2404.1157">Promovoqum / Permanoks</text><text fill="#000000" font-family="Arial" font-size="11" lengthAdjust="spacing" textLength="101.5029" x="158.5" y="2416.7646">(euto-approboqum si</text><text fill="#000000" font-family="Arial" font-size="11" lengthAdjust="spacing" textLength="122.2676" x="158.5" y="2429.4136">kodwy hash immutoqum)</text></g><g class="entity" data-qualified-name="GMN48" data-source-line="85" id="ent0049"><path d="M345.5,1344.7979 L345.5,1430.6914 L530.3452,1430.6914 L530.3452,1354.7979 L520.3452,1344.7979 L345.5,1344.7979" fill="#FFFFFF" style="stroke:#000000;stroke-width:1;"/><path d="M520.3452,1344.7979 L520.3452,1354.7979 L530.3452,1354.7979 L520.3452,1344.7979" fill="#FFFFFF" style="stroke:#000000;stroke-width:1;"/><text fill="#000000" font-family="Arial" font-size="11" font-weight="bold" lengthAdjust="spacing" textLength="115.5322" x="351.5" y="1360.1157">Proveniontia Trocava:</text><text fill="#000000" font-family="Arial" font-size="11" lengthAdjust="spacing" textLength="135.7222" x="351.5" y="1372.7646">- Qvalis anomolyx generovit</text><text fill="#000000" font-family="Arial" font-size="11" lengthAdjust="spacing" textLength="83.1445" x="351.5" y="1385.4136">- Qvis approbovit</text><text fill="#000000" font-family="Arial" font-size="11" lengthAdjust="spacing" textLength="132.666" x="351.5" y="1398.0625">- Qvae modifokava fueramt</text><text fill="#000000" font-family="Arial" font-size="11" lengthAdjust="spacing" textLength="163.8452" x="351.5" y="1410.7114">- Successom/defektam numerotio</text><text fill="#000000" font-family="Arial" font-size="11" lengthAdjust="spacing" textLength="118.5884" x="351.5" y="1423.3604">- Operatwix qvi promovit</text></g><g class="entity" data-qualified-name="GMN51" data-source-line="94" id="ent0052"><path d="M362,2211.7979 L362,2285.0425 L553.5859,2285.0425 L553.5859,2221.7979 L543.5859,2211.7979 L362,2211.7979" fill="#FFFFFF" style="stroke:#000000;stroke-width:1;"/><path d="M543.5859,2211.7979 L543.5859,2221.7979 L553.5859,2221.7979 L543.5859,2211.7979" fill="#FFFFFF" style="stroke:#000000;stroke-width:1;"/><text fill="#000000" font-family="Arial" font-size="11" font-weight="bold" lengthAdjust="spacing" textLength="96.5723" x="368" y="2227.1157">Promotvo Kriteria:</text><text fill="#000000" font-family="Arial" font-size="11" lengthAdjust="spacing" textLength="146.7275" x="368" y="2239.7646">- &gt;= N successom ixecutiones</text><text fill="#000000" font-family="Arial" font-size="11" lengthAdjust="spacing" textLength="150.9868" x="368" y="2252.4136">- Nollam defektam in ultimox M</text><text fill="#000000" font-family="Arial" font-size="11" lengthAdjust="spacing" textLength="168.749" x="368" y="2265.0625">- Operatwix approbatio promotvoni</text><text fill="#000000" font-family="Arial" font-size="11" lengthAdjust="spacing" textLength="170.5859" x="368" y="2277.7114">- Kodwy inspektio per qualifokatum</text></g><g class="entity" data-qualified-name="GMN54" data-source-line="102" id="ent0055"><path d="M377.5,1895.7979 L377.5,1981.6914 L614.9282,1981.6914 L614.9282,1905.7979 L604.9282,1895.7979 L377.5,1895.7979" fill="#FFFFFF" style="stroke:#000000;stroke-width:1;"/><path d="M604.9282,1895.7979 L604.9282,1905.7979 L614.9282,1905.7979 L604.9282,1895.7979" fill="#FFFFFF" style="stroke:#000000;stroke-width:1;"/><text fill="#000000" font-family="Arial" font-size="11" font-weight="bold" lengthAdjust="spacing" textLength="110.0215" x="383.5" y="1911.1157">Sekuritas Kontrolwx:</text><text fill="#000000" font-family="Arial" font-size="11" lengthAdjust="spacing" textLength="216.4282" x="383.5" y="1923.7646">- Egressas permossio: solam pre-approbava</text><text fill="#000000" font-family="Arial" font-size="11" lengthAdjust="spacing" textLength="121.666" x="389.6123" y="1936.4136">dowum servotia domolya</text><text fill="#000000" font-family="Arial" font-size="11" lengthAdjust="spacing" textLength="146.1152" x="383.5" y="1949.0625">- Nolla lateroqus retox motvas</text><text fill="#000000" font-family="Arial" font-size="11" lengthAdjust="spacing" textLength="177.3105" x="383.5" y="1961.7114">- Kontinens destruktam post ixecutio</text><text fill="#000000" font-family="Arial" font-size="11" lengthAdjust="spacing" textLength="180.979" x="383.5" y="1974.3604">- Omnva dowa per ephemova reposit</text></g><!--link cg1 to cg2--><g class="link" data-entity-1="ent0008" data-entity-2="ent0009" data-link-type="dependency" data-source-line="29" id="lnk14"><path d="M244,272.3479 C244,290.1979 244,309.4379 244,327.2779" fill="none" id="cg1-to-cg2" style="stroke:#000000;stroke-width:1;"/><polygon fill="#000000" points="244,333.2779,248,324.2779,244,328.2779,240,324.2779,244,333.2779" style="stroke:#000000;stroke-width:1;"/></g><!--link cg2 to cg3--><g class="link" data-entity-1="ent0009" data-entity-2="ent0010" data-link-type="dependency" data-source-line="30" id="lnk15"><path d="M244,378.3479 C244,396.1979 244,415.4379 244,433.2779" fill="none" id="cg2-to-cg3" style="stroke:#000000;stroke-width:1;"/><polygon fill="#000000" points="244,439.2779,248,430.2779,244,434.2779,240,430.2779,244,439.2779" style="stroke:#000000;stroke-width:1;"/></g><!--link cg3 to cg4--><g class="link" data-entity-1="ent0010" data-entity-2="ent0011" data-link-type="dependency" data-source-line="31" id="lnk16"><path d="M244,484.3479 C244,502.1979 244,521.4379 244,539.2779" fill="none" id="cg3-to-cg4" style="stroke:#000000;stroke-width:1;"/><polygon fill="#000000" points="244,545.2779,248,536.2779,244,540.2779,240,536.2779,244,545.2779" style="stroke:#000000;stroke-width:1;"/></g><!--link cg4 to cg5--><g class="link" data-entity-1="ent0011" data-entity-2="ent0012" data-link-type="dependency" data-source-line="32" id="lnk17"><path d="M244,590.3479 C244,608.1979 244,627.4379 244,645.2779" fill="none" id="cg4-to-cg5" style="stroke:#000000;stroke-width:1;"/><polygon fill="#000000" points="244,651.2779,248,642.2779,244,646.2779,240,642.2779,244,651.2779" style="stroke:#000000;stroke-width:1;"/></g><!--link cg5 to cg6--><g class="link" data-entity-1="ent0012" data-entity-2="ent0013" data-link-type="dependency" data-source-line="33" id="lnk18"><path d="M244,696.3479 C244,714.1979 244,733.4379 244,751.2779" fill="none" id="cg5-to-cg6" style="stroke:#000000;stroke-width:1;"/><polygon fill="#000000" points="244,757.2779,248,748.2779,244,752.2779,240,748.2779,244,757.2779" style="stroke:#000000;stroke-width:1;"/></g><!--link v1 to v2--><g class="link" data-entity-1="ent0020" data-entity-2="ent0021" data-link-type="dependency" data-source-line="41" id="lnk23"><path d="M244,954.4379 C244,969.6879 244,987.6679 244,1009.1379" fill="none" id="v1-to-v2" style="stroke:#000000;stroke-width:1;"/><polygon fill="#000000" points="244,1015.1379,248,1006.1379,244,1010.1379,240,1006.1379,244,1015.1379" style="stroke:#000000;stroke-width:1;"/></g><!--link v2 to v3--><g class="link" data-entity-1="ent0021" data-entity-2="ent0022" data-link-type="dependency" data-source-line="42" id="lnk24"><path d="M244,1111.4779 C244,1131.7379 244,1148.7179 244,1166.2279" fill="none" id="v2-to-v3" style="stroke:#000000;stroke-width:1;"/><polygon fill="#000000" points="244,1172.2279,248,1163.2279,244,1167.2279,240,1163.2279,244,1172.2279" style="stroke:#000000;stroke-width:1;"/></g><!--link sb1 to sb2--><g class="link" data-entity-1="ent0026" data-entity-2="ent0027" data-link-type="dependency" data-source-line="50" id="lnk29"><path d="M231,1834.8479 C231,1859.4179 231,1882.6679 231,1903.6879" fill="none" id="sb1-to-sb2" style="stroke:#000000;stroke-width:1;"/><polygon fill="#000000" points="231,1909.6879,235,1900.6879,231,1904.6879,227,1900.6879,231,1909.6879" style="stroke:#000000;stroke-width:1;"/></g><!--link sb2 to sb3--><g class="link" data-entity-1="ent0027" data-entity-2="ent0028" data-link-type="dependency" data-source-line="51" id="lnk30"><path d="M231,1968.0479 C231,1990.7179 231,2016.0679 231,2036.7479" fill="none" id="sb2-to-sb3" style="stroke:#000000;stroke-width:1;"/><polygon fill="#000000" points="231,2042.7479,235,2033.7479,231,2037.7479,227,2033.7479,231,2042.7479" style="stroke:#000000;stroke-width:1;"/></g><!--link h1 to h2--><g class="link" data-entity-1="ent0032" data-entity-2="ent0033" data-link-type="dependency" data-source-line="58" id="lnk34"><path d="M132.25,1410.3179 C132.58,1440.0679 133.1324,1488.0882 133.5324,1523.5882" fill="none" id="h1-to-h2" style="stroke:#000000;stroke-width:1;"/><polygon fill="#000000" points="133.6,1529.5879,137.4983,1520.5434,133.5437,1524.5882,129.4989,1520.6335,133.6,1529.5879" style="stroke:#000000;stroke-width:1;"/></g><!--link reg_dyn to reg_perm--><g class="link" data-entity-1="ent0036" data-entity-2="ent0037" data-link-type="dependency" data-source-line="65" id="lnk38"><path d="M230.6,2270.8779 C230.07,2299.8879 229.2204,2345.5089 228.6304,2377.5789" fill="none" id="reg_dyn-to-reg_perm" style="stroke:#000000;stroke-width:1;"/><polygon fill="#000000" points="228.52,2383.5779,232.6849,2374.653,228.612,2378.5787,224.6862,2374.5058,228.52,2383.5779" style="stroke:#000000;stroke-width:1;"/><text fill="#000000" font-family="Arial" font-size="11" lengthAdjust="spacing" textLength="69.7007" x="250.95" y="2326.1157">promotvo post</text><text fill="#000000" font-family="Arial" font-size="11" lengthAdjust="spacing" textLength="100.2515" x="235.6746" y="2338.7646">ripetitam successom</text><text fill="#000000" font-family="Arial" font-size="11" lengthAdjust="spacing" textLength="111.6006" x="230" y="2351.4136">+ operatwix approbatio</text></g><!--link src1 to cg1--><g class="link" data-entity-1="ent0003" data-entity-2="ent0008" data-link-type="dependency" data-source-line="69" id="lnk39"><path d="M114.4,134.3479 C143.15,159.7379 186.1533,197.7055 214.9633,223.1555" fill="none" id="src1-to-cg1" style="stroke:#000000;stroke-width:1;"/><polygon fill="#000000" points="219.46,227.1279,215.3631,218.1716,215.7127,223.8176,210.0667,224.1672,219.46,227.1279" style="stroke:#000000;stroke-width:1;"/></g><!--link src2 to cg1--><g class="link" data-entity-1="ent0004" data-entity-2="ent0008" data-link-type="dependency" data-source-line="70" id="lnk40"><path d="M211.18,134.3479 C218.44,159.6679 228.7669,195.6601 236.0669,221.1301" fill="none" id="src2-to-cg1" style="stroke:#000000;stroke-width:1;"/><polygon fill="#000000" points="237.72,226.8979,239.0855,217.1441,236.3424,222.0914,231.3951,219.3483,237.72,226.8979" style="stroke:#000000;stroke-width:1;"/></g><!--link src3 to cg1--><g class="link" data-entity-1="ent0005" data-entity-2="ent0008" data-link-type="dependency" data-source-line="71" id="lnk41"><path d="M311.32,134.3479 C296.43,159.6679 274.9018,196.256 259.9218,221.726" fill="none" id="src3-to-cg1" style="stroke:#000000;stroke-width:1;"/><polygon fill="#000000" points="256.88,226.8979,264.8905,221.168,259.4148,222.588,257.9948,217.1123,256.88,226.8979" style="stroke:#000000;stroke-width:1;"/></g><!--link src4 to cg1--><g class="link" data-entity-1="ent0006" data-entity-2="ent0008" data-link-type="dependency" data-source-line="72" id="lnk42"><path d="M433.04,134.4879 C421.06,142.0779 407.47,150.6279 395,158.2979 C356.09,182.2479 316.2911,206.0279 285.6111,224.2179" fill="none" id="src4-to-cg1" style="stroke:#000000;stroke-width:1;"/><polygon fill="#000000" points="280.45,227.2779,290.2316,226.1286,284.7509,224.7279,286.1516,219.2472,280.45,227.2779" style="stroke:#000000;stroke-width:1;"/></g><!--link cg6 to v1--><g class="link" data-entity-1="ent0013" data-entity-2="ent0020" data-link-type="dependency" data-source-line="74" id="lnk43"><path d="M244,802.4879 C244,834.2979 244,886.8779 244,914.9679" fill="none" id="cg6-to-v1" style="stroke:#000000;stroke-width:1;"/><polygon fill="#000000" points="244,920.9679,248,911.9679,244,915.9679,240,911.9679,244,920.9679" style="stroke:#000000;stroke-width:1;"/><text fill="#000000" font-family="Arial" font-size="11" lengthAdjust="spacing" textLength="55.6499" x="245" y="845.6157">generoqum</text><text fill="#000000" font-family="Arial" font-size="11" lengthAdjust="spacing" textLength="31.1792" x="257.2354" y="858.2646">kodwy</text></g><!--link v3 to h1--><g class="link" data-entity-1="ent0022" data-entity-2="ent0032" data-link-type="dependency" data-source-line="76" id="lnk44"><path d="M225.86,1230.5779 C219.51,1240.5679 212.38,1251.8979 206,1262.2979 C184.04,1298.0879 162.2706,1334.9895 147.6806,1359.9195" fill="none" id="v3-to-h1" style="stroke:#000000;stroke-width:1;"/><polygon fill="#000000" points="144.65,1365.0979,152.6481,1359.3507,147.1755,1360.7825,145.7436,1355.3099,144.65,1365.0979" style="stroke:#000000;stroke-width:1;"/><text fill="#000000" font-family="Arial" font-size="11" lengthAdjust="spacing" textLength="36.6792" x="218.0054" y="1273.6157">promus</text><text fill="#000000" font-family="Arial" font-size="11" lengthAdjust="spacing" textLength="58.6899" x="207" y="1286.2646">tulwra typas</text></g><!--link h2 to sb1--><g class="link" data-entity-1="ent0033" data-entity-2="ent0026" data-link-type="dependency" data-source-line="78" id="lnk45"><path d="M149.37,1601.0779 C165.77,1638.1879 189.4243,1691.7201 207.6843,1733.0301" fill="none" id="h2-to-sb1" style="stroke:#000000;stroke-width:1;"/><polygon fill="#000000" points="210.11,1738.5179,210.1299,1728.669,208.0886,1733.9447,202.8129,1731.9033,210.11,1738.5179" style="stroke:#000000;stroke-width:1;"/><text fill="#000000" font-family="Arial" font-size="11" lengthAdjust="spacing" textLength="61.7676" x="174" y="1660.1157">approboqum</text></g><!--link v3 to sb1--><g class="link" data-entity-1="ent0022" data-entity-2="ent0026" data-link-type="dependency" data-source-line="80" id="lnk46"><path d="M259.04,1230.5079 C263.49,1240.2879 267.76,1251.5179 270,1262.2979 C272.44,1274.0479 270.42,1277.3079 270,1289.2979 C264.22,1455.5979 258.52,1497.0279 244,1662.7979 C241.81,1687.8279 239.5523,1709.7034 237.0523,1732.5634" fill="none" id="v3-to-sb1" style="stroke:#008800;stroke-width:1;stroke-dasharray:7,7;"/><polygon fill="#008800" points="236.4,1738.5279,241.3547,1730.016,236.9436,1733.5575,233.4021,1729.1463,236.4,1738.5279" style="stroke:#008800;stroke-width:1;"/><text fill="#000000" font-family="Arial" font-size="11" lengthAdjust="spacing" textLength="99.0591" x="262.9185" y="1472.1157">subseqvens ixecutio</text><text fill="#000000" font-family="Arial" font-size="11" lengthAdjust="spacing" textLength="92.313" x="266.2915" y="1484.7646">(idom kodwy hash)</text><text fill="#000000" font-family="Arial" font-size="11" lengthAdjust="spacing" textLength="100.896" x="262" y="1497.4136">&#8594; euto-approboqum</text></g><!--link sb3 to reg_dyn--><g class="link" data-entity-1="ent0028" data-entity-2="ent0036" data-link-type="dependency" data-source-line="82" id="lnk47"><path d="M231,2088.1279 C231,2123.0179 231,2184.9179 231,2219.6679" fill="none" id="sb3-to-reg_dyn" style="stroke:#000000;stroke-width:1;"/><polygon fill="#000000" points="231,2225.6679,235,2216.6679,231,2220.6679,227,2216.6679,231,2225.6679" style="stroke:#000000;stroke-width:1;"/><text fill="#000000" font-family="Arial" font-size="11" lengthAdjust="spacing" textLength="72.1338" x="232" y="2147.1157">repositam kum</text><text fill="#000000" font-family="Arial" font-size="11" lengthAdjust="spacing" textLength="59.9307" x="238.1016" y="2159.7646">proveniontia</text></g><!--link INSPECTIO to GMN48--><g class="link" data-entity-1="ent0031" data-entity-2="ent0049" data-link-type="association" data-source-line="85" id="lnk50"><path d="M26.6797,1312.8721 C26.8075,1312.5046 26.9372,1312.138 27.069,1311.7724 C27.3325,1311.0412 27.6042,1310.314 27.8841,1309.5913 C29.004,1306.7006 30.2572,1303.8823 31.6583,1301.1696 C37.2625,1290.3185 45.2325,1281.1554 56.5,1275.7979 C105.47,1252.5179 249.41,1257.6279 300.5,1275.7979 C339.08,1289.5179 374.69,1319.2179 400,1344.5779" fill="none" id="INSPECTIO-GMN48" style="stroke:#000000;stroke-width:1;stroke-dasharray:7,7;"/></g><!--link REGISTRUM to GMN51--><g class="link" data-entity-1="ent0035" data-entity-2="ent0052" data-link-type="association" data-source-line="94" id="lnk53"><path d="M120.2593,2186.6169 C120.3152,2186.4514 120.3715,2186.2859 120.4282,2186.1207 C120.5417,2185.7901 120.6567,2185.4602 120.7734,2185.1308 C121.0067,2184.4722 121.2467,2183.8161 121.4934,2183.1631 C121.9869,2181.857 122.5073,2180.563 123.0563,2179.2848 C124.1543,2176.7284 125.3662,2174.2349 126.7034,2171.8335 C132.0525,2162.2279 139.4075,2154.0954 149.5,2149.2979 C214.93,2118.1879 243.26,2127.9779 312.5,2149.2979 C352.36,2161.5679 391.08,2188.9079 418.54,2211.7479" fill="none" id="REGISTRUM-GMN51" style="stroke:#000000;stroke-width:1;stroke-dasharray:7,7;"/></g><!--link ARENATUS to GMN54--><g class="link" data-entity-1="ent0025" data-entity-2="ent0055" data-link-type="association" data-source-line="102" id="lnk56"><path d="M353.0021,1795.7474 C353.1819,1795.926 353.3643,1796.1072 353.5494,1796.291 C353.9195,1796.6587 354.3002,1797.0368 354.6911,1797.4252 C355.4729,1798.2018 356.2958,1799.0192 357.1573,1799.875 C364.0497,1806.7216 373.4169,1816.0266 384.0538,1826.5929 C405.3275,1847.7254 431.68,1873.9029 453.47,1895.5479" fill="none" id="ARENATUS-GMN54" style="stroke:#000000;stroke-width:1;stroke-dasharray:7,7;"/></g><?plantuml-src XLVTJXj75BxVfvWcKXjS70mc4K8Y4Z4sTKY0s2QgKbVLs3lOazsTMMPcrtQgIBtg0rHzmZn9lpFxOsEe43VMsVFxdU-SC_pWvY8HB8svL86Df4gvuGcRy6aqCpfJOKV7sh3dlIxzRMY4ufPdiUjfvIuvF9mQoUF7lm_bLy7szpS-6Z5rNCrYmVuC61iKSOmIXXq5tpRq-DJ9NBhL0xNz5lG29nrSD1gz_lbBTiI-__KlUsjq7eab6sNnmd1sBfAKEwdPEwr2aJgPD1f1i0x_hD7uREHT1ejF6a5je_6CSSjwLvUZxX1bj_3Ny-4tZ2uMmZYaTthTPtjZTQRjT25J-FYSwjZRMpFTPy-xhIwixzkU6vtE-NAiXf7yal1A--1nxMkZtLp6MSBE-CAErOjhRLOBQVT6F9vboKvbtdxSlBzCU1hhPAn6XbkDbFVO1OzJdLI6XxNXjorSBdIuMB5p2RZvrzMoqK3qp_WzMSYbXphMZaVIilFh6vQBcCqbGCbvaTDvzx8xE1qD-hy2n5xtgDFP1X6LM1bB3-BNeWTZ9HMppkWeHQg937KSyoBLwMoV7FLQPsTRUFe4ySkjKZtXADKLhOzY7bbfI-k39wnp7SkGwXohK2-oAheipTjFc8lCpRK20svZkUJKgA6S-UntsKMiSs5t6S3J4EoKBW-VS9dgcLR4tR7waTq28A6Sv40zqKwRqichfvmOFT7UnwrK8KymZRmqVLsRmfRWRQ9mrNn3O7d9mOQaxINj3ScXbnnkI5vvoQiDoUi7fBeo4xvamvLo-YwpcBbOXrIZPzVGwHpSkb8yMXKKkoG8MNyffXcK2kG-dRxldzNCeW7zFsRT3-QDSyyYOlnzaqPZq7_NlHYT3hhCIXO19nbpTqnvDPd8UVnY1xCZaCcB7HBPR09ihR0MNlUOjY_joY9_xZz6HgQqTUJIWOdQY8I8sKH4fvUbD1KcqTPIRvfC9gd6z10HeKAx9T6XZWhwvGUF9_r967ahfpeMnvxzEVS1ZEAxO_JVw2NyO9gcX3143ilGXo_WB7otQzzmdgzPa1C9yZK7ylOZpHJAjx5gaE_Y1M6dX8BOehrtrPO2j9UdeniirUxHeqkrjfEb7Okov9ZGwLpVx2KY0Jl0Vmd-2qlYWKTJp4pHXNk0ZefQ7SdAAMgMT88UzeBJY6H4ggrqzEszYAXZbaQKbRqibkG4dEbq7YxNyiGKS78uGRfiOa0MP1TXpJiEBirKkS7ivE1nFmDXi_WkuxI3C0r48UAVTvr2pKDXDwx5f5qxWYVAhseIOdZ9mORaOTz-qGbNMDnzPTEYQaoCArSyBaw2bfPB5BJYjkXV_t9utUsC-bV5s7KVZDt7ZCVoLaT0sp8DbBd3gQ2TRbEIifa0Aul6qctnNkVbGBxTulPLPOyzw92avy5fIlkCfaHYZqLE-w7we4CVrc0DEyOh7SyG-GMs-5B4EgXZ8TXy3Tlyu056PNC7OWQgB7HIlWi6tVF-S3Iu-U2V1hs7kwVHg5uWUnWB527zpesbzUWQ6IsqaNMQ13wKDd4sOlP7k59qbodPRVVK7vrx5FVODUZDbOuAvpX2kbauBZWZYKbqnUVSph5Zaiojvv7YqCWGbtgzJYVmaOhO5J2rpZ5T4WnUZdIr1TUnu0IUNpGhsNIA0QHU_Bnk-qQ1XErFxEJaXFNY3CUHVWR-WRI-5Fk1VmDj2ThRWiDxWe2EMBsVzf5apR2oy238rpxc-sKPcQqV2Hxt89Xl3WofhL5Sk_ZjUQjrTDHgxOP0KuI_rygu1LRSvNvrbPiGtS3xeIIwXnzNu_lV_x2j7WK1JVCct0J_SRMOkD-1OmLrk9Uq8NaGA4m4Ct8sTqpVhkSI_VFqg3NPY7P_pd75yAt9FkR4GmR293h6XItGmlkw_4hVYipMCYxe4ldvmdcvpT3UfFWshFg-XwS-JLd2L9R08RMS5DOZV9VBWZ_aLwYGKGNRTTIZLTLHqEq2qu8fgejuSy8krvoh0LV2-iz-nVl_FegKyA34Vo4OmYNxi9NLvWYMqPJqEiNJLzRhaIRqhjvkwDfM3NXYOHTH4TMHypKCHPGXUp2URXiUVujbLKNtmT4wBazFQaJ93m0ENSQAzwWL9jVKrD1tZw-hPNYeUDRRydr1fN1RLb8TrL3WOPrvJ6Y2Q-0AK1ALa-U5luvCf7EwjhoYuRhU_m00?></g></svg>