<?plantuml 1.2026.1?>
<svg xmlns="http://www.w3.org/2000/svg" xmlns:xlink="http://www.w3.org/1999/xlink" contentStyleType="text/css"
     data-diagram-type="DESCRIPTION" height="962px" preserveAspectRatio="none"
     style="width:2235px;height:962px;background:#FFFFFF;" version="1.1" viewBox="0 0 2235 962" width="2235px"
     zoomAndPan="magnify">
    <title>PokeAMI &#8212; Component Diagram</title>
    <defs/>
    <g>
        <g class="title" data-source-line="3">
            <text fill="#000000" font-family="Verdana" font-size="22" font-weight="bold" lengthAdjust="spacing"
                  textLength="400.6299" x="912.6851" y="37.1182">PokeAMI &#8212; Component Diagram
            </text>
        </g><!--cluster API Layer-->
        <g class="cluster" data-qualified-name="API Layer" data-source-line="5" id="ent0002">
            <path d="M13.5,58.7373 L91.6982,58.7373 A3.75,3.75 0 0 1 94.1982,61.2373 L101.1982,81.752 L1644.5,81.752 A2.5,2.5 0 0 1 1647,84.252 L1647,301.2373 A2.5,2.5 0 0 1 1644.5,303.7373 L13.5,303.7373 A2.5,2.5 0 0 1 11,301.2373 L11,61.2373 A2.5,2.5 0 0 1 13.5,58.7373"
                  fill="#FFFFFF" style="stroke:#000000;stroke-width:1;"/>
            <line style="stroke:#000000;stroke-width:1;" x1="11" x2="101.1982" y1="81.752" y2="81.752"/>
            <text fill="#000000" font-family="Verdana" font-size="14" font-weight="bold" lengthAdjust="spacing"
                  textLength="77.1982" x="15" y="74.8125">API Layer
            </text>
        </g><!--cluster Simulator Layer-->
        <g class="cluster" data-qualified-name="Simulator Layer" data-source-line="17" id="ent0012">
            <path d="M1673.5,204.7373 L1799.5293,204.7373 A3.75,3.75 0 0 1 1802.0293,207.2373 L1809.0293,227.752 L2225.5,227.752 A2.5,2.5 0 0 1 2228,230.252 L2228,953.2373 A2.5,2.5 0 0 1 2225.5,955.7373 L1673.5,955.7373 A2.5,2.5 0 0 1 1671,953.2373 L1671,207.2373 A2.5,2.5 0 0 1 1673.5,204.7373"
                  fill="#FFFFFF" style="stroke:#000000;stroke-width:1;"/>
            <line style="stroke:#000000;stroke-width:1;" x1="1671" x2="1809.0293" y1="227.752" y2="227.752"/>
            <text fill="#000000" font-family="Verdana" font-size="14" font-weight="bold" lengthAdjust="spacing"
                  textLength="125.0293" x="1675" y="220.8125">Simulator Layer
            </text>
        </g><!--entity API-->
        <g class="entity" data-qualified-name="API Layer.API" data-source-line="6" id="ent0003">
            <rect fill="#FFFFFF" height="47.0146" rx="2.5" ry="2.5" style="stroke:#000000;stroke-width:1;"
                  width="175.208" x="27.5" y="94.7373"/>
            <rect fill="#FFFFFF" height="10" style="stroke:#000000;stroke-width:1;" width="15" x="182.708" y="99.7373"/>
            <rect fill="#FFFFFF" height="2" style="stroke:#000000;stroke-width:1;" width="4" x="180.708" y="101.7373"/>
            <rect fill="#FFFFFF" height="2" style="stroke:#000000;stroke-width:1;" width="4" x="180.708" y="105.7373"/>
            <text fill="#000000" font-family="Verdana" font-size="14" lengthAdjust="spacing" textLength="135.208"
                  x="42.5" y="128.8125">FastAPI Application
            </text>
        </g><!--entity Health-->
        <g class="entity" data-qualified-name="API Layer.Health" data-source-line="7" id="ent0004">
            <rect fill="#FFFFFF" height="47.0146" rx="2.5" ry="2.5" style="stroke:#000000;stroke-width:1;"
                  width="137.3301" x="237.5" y="94.7373"/>
            <rect fill="#FFFFFF" height="10" style="stroke:#000000;stroke-width:1;" width="15" x="354.8301"
                  y="99.7373"/>
            <rect fill="#FFFFFF" height="2" style="stroke:#000000;stroke-width:1;" width="4" x="352.8301" y="101.7373"/>
            <rect fill="#FFFFFF" height="2" style="stroke:#000000;stroke-width:1;" width="4" x="352.8301" y="105.7373"/>
            <text fill="#000000" font-family="Verdana" font-size="14" lengthAdjust="spacing" textLength="97.3301"
                  x="252.5" y="128.8125">Health Router
            </text>
        </g><!--entity Meters-->
        <g class="entity" data-qualified-name="API Layer.Meters" data-source-line="8" id="ent0005">
            <rect fill="#FFFFFF" height="47.0146" rx="2.5" ry="2.5" style="stroke:#000000;stroke-width:1;"
                  width="139.1074" x="409.5" y="94.7373"/>
            <rect fill="#FFFFFF" height="10" style="stroke:#000000;stroke-width:1;" width="15" x="528.6074"
                  y="99.7373"/>
            <rect fill="#FFFFFF" height="2" style="stroke:#000000;stroke-width:1;" width="4" x="526.6074" y="101.7373"/>
            <rect fill="#FFFFFF" height="2" style="stroke:#000000;stroke-width:1;" width="4" x="526.6074" y="105.7373"/>
            <text fill="#000000" font-family="Verdana" font-size="14" lengthAdjust="spacing" textLength="99.1074"
                  x="424.5" y="128.8125">Meters Router
            </text>
        </g><!--entity Readings-->
        <g class="entity" data-qualified-name="API Layer.Readings" data-source-line="9" id="ent0006">
            <rect fill="#FFFFFF" height="47.0146" rx="2.5" ry="2.5" style="stroke:#000000;stroke-width:1;"
                  width="155.7666" x="584" y="94.7373"/>
            <rect fill="#FFFFFF" height="10" style="stroke:#000000;stroke-width:1;" width="15" x="719.7666"
                  y="99.7373"/>
            <rect fill="#FFFFFF" height="2" style="stroke:#000000;stroke-width:1;" width="4" x="717.7666" y="101.7373"/>
            <rect fill="#FFFFFF" height="2" style="stroke:#000000;stroke-width:1;" width="4" x="717.7666" y="105.7373"/>
            <text fill="#000000" font-family="Verdana" font-size="14" lengthAdjust="spacing" textLength="115.7666"
                  x="599" y="128.8125">Readings Router
            </text>
        </g><!--entity UP-->
        <g class="entity" data-qualified-name="API Layer.UP" data-source-line="10" id="ent0007">
            <rect fill="#FFFFFF" height="47.0146" rx="2.5" ry="2.5" style="stroke:#000000;stroke-width:1;"
                  width="182.2285" x="775" y="94.7373"/>
            <rect fill="#FFFFFF" height="10" style="stroke:#000000;stroke-width:1;" width="15" x="937.2285"
                  y="99.7373"/>
            <rect fill="#FFFFFF" height="2" style="stroke:#000000;stroke-width:1;" width="4" x="935.2285" y="101.7373"/>
            <rect fill="#FFFFFF" height="2" style="stroke:#000000;stroke-width:1;" width="4" x="935.2285" y="105.7373"/>
            <text fill="#000000" font-family="Verdana" font-size="14" lengthAdjust="spacing" textLength="142.2285"
                  x="790" y="128.8125">Usage Points Router
            </text>
        </g><!--entity RT-->
        <g class="entity" data-qualified-name="API Layer.RT" data-source-line="11" id="ent0008">
            <rect fill="#FFFFFF" height="47.0146" rx="2.5" ry="2.5" style="stroke:#000000;stroke-width:1;"
                  width="194.6631" x="992.5" y="94.7373"/>
            <rect fill="#FFFFFF" height="10" style="stroke:#000000;stroke-width:1;" width="15" x="1167.1631"
                  y="99.7373"/>
            <rect fill="#FFFFFF" height="2" style="stroke:#000000;stroke-width:1;" width="4" x="1165.1631"
                  y="101.7373"/>
            <rect fill="#FFFFFF" height="2" style="stroke:#000000;stroke-width:1;" width="4" x="1165.1631"
                  y="105.7373"/>
            <text fill="#000000" font-family="Verdana" font-size="14" lengthAdjust="spacing" textLength="154.6631"
                  x="1007.5" y="128.8125">Reading Types Router
            </text>
        </g><!--entity Analytics-->
        <g class="entity" data-qualified-name="API Layer.Analytics" data-source-line="12" id="ent0009">
            <rect fill="#FFFFFF" height="47.0146" rx="2.5" ry="2.5" style="stroke:#000000;stroke-width:1;"
                  width="154.7549" x="1222.5" y="94.7373"/>
            <rect fill="#FFFFFF" height="10" style="stroke:#000000;stroke-width:1;" width="15" x="1357.2549"
                  y="99.7373"/>
            <rect fill="#FFFFFF" height="2" style="stroke:#000000;stroke-width:1;" width="4" x="1355.2549"
                  y="101.7373"/>
            <rect fill="#FFFFFF" height="2" style="stroke:#000000;stroke-width:1;" width="4" x="1355.2549"
                  y="105.7373"/>
            <text fill="#000000" font-family="Verdana" font-size="14" lengthAdjust="spacing" textLength="114.7549"
                  x="1237.5" y="128.8125">Analytics Router
            </text>
        </g><!--entity DP-->
        <g class="entity" data-qualified-name="API Layer.DP" data-source-line="13" id="ent0010">
            <rect fill="#FFFFFF" height="47.0146" rx="2.5" ry="2.5" style="stroke:#000000;stroke-width:1;"
                  width="217.7617" x="1413" y="94.7373"/>
            <rect fill="#FFFFFF" height="10" style="stroke:#000000;stroke-width:1;" width="15" x="1610.7617"
                  y="99.7373"/>
            <rect fill="#FFFFFF" height="2" style="stroke:#000000;stroke-width:1;" width="4" x="1608.7617"
                  y="101.7373"/>
            <rect fill="#FFFFFF" height="2" style="stroke:#000000;stroke-width:1;" width="4" x="1608.7617"
                  y="105.7373"/>
            <text fill="#000000" font-family="Verdana" font-size="14" lengthAdjust="spacing" textLength="177.7617"
                  x="1428" y="128.8125">Delivery Promises Router
            </text>
        </g><!--entity Auth-->
        <g class="entity" data-qualified-name="API Layer.Auth" data-source-line="14" id="ent0011">
            <rect fill="#FFFFFF" height="47.0146" rx="2.5" ry="2.5" style="stroke:#000000;stroke-width:1;"
                  width="157.1748" x="36.5" y="240.7373"/>
            <rect fill="#FFFFFF" height="10" style="stroke:#000000;stroke-width:1;" width="15" x="173.6748"
                  y="245.7373"/>
            <rect fill="#FFFFFF" height="2" style="stroke:#000000;stroke-width:1;" width="4" x="171.6748" y="247.7373"/>
            <rect fill="#FFFFFF" height="2" style="stroke:#000000;stroke-width:1;" width="4" x="171.6748" y="251.7373"/>
            <text fill="#000000" font-family="Verdana" font-size="14" lengthAdjust="spacing" textLength="117.1748"
                  x="51.5" y="274.8125">Auth Middleware
            </text>
        </g><!--entity Engine-->
        <g class="entity" data-qualified-name="Simulator Layer.Engine" data-source-line="18" id="ent0013">
            <rect fill="#FFFFFF" height="47.0146" rx="2.5" ry="2.5" style="stroke:#000000;stroke-width:1;"
                  width="155.6025" x="1687" y="240.7373"/>
            <rect fill="#FFFFFF" height="10" style="stroke:#000000;stroke-width:1;" width="15" x="1822.6025"
                  y="245.7373"/>
            <rect fill="#FFFFFF" height="2" style="stroke:#000000;stroke-width:1;" width="4" x="1820.6025"
                  y="247.7373"/>
            <rect fill="#FFFFFF" height="2" style="stroke:#000000;stroke-width:1;" width="4" x="1820.6025"
                  y="251.7373"/>
            <text fill="#000000" font-family="Verdana" font-size="14" lengthAdjust="spacing" textLength="115.6025"
                  x="1702" y="274.8125">SimulatorEngine
            </text>
        </g><!--entity HES-->
        <g class="entity" data-qualified-name="Simulator Layer.HES" data-source-line="19" id="ent0014">
            <rect fill="#FFFFFF" height="47.0146" rx="2.5" ry="2.5" style="stroke:#000000;stroke-width:1;"
                  width="148.4932" x="1771" y="644.7373"/>
            <rect fill="#FFFFFF" height="10" style="stroke:#000000;stroke-width:1;" width="15" x="1899.4932"
                  y="649.7373"/>
            <rect fill="#FFFFFF" height="2" style="stroke:#000000;stroke-width:1;" width="4" x="1897.4932"
                  y="651.7373"/>
            <rect fill="#FFFFFF" height="2" style="stroke:#000000;stroke-width:1;" width="4" x="1897.4932"
                  y="655.7373"/>
            <text fill="#000000" font-family="Verdana" font-size="14" lengthAdjust="spacing" textLength="108.4932"
                  x="1786" y="678.8125">Headend (HES)
            </text>
        </g><!--entity MDM-->
        <g class="entity" data-qualified-name="Simulator Layer.MDM" data-source-line="20" id="ent0015">
            <rect fill="#FFFFFF" height="47.0146" rx="2.5" ry="2.5" style="stroke:#000000;stroke-width:1;"
                  width="119.2969" x="1880.5" y="520.7373"/>
            <rect fill="#FFFFFF" height="10" style="stroke:#000000;stroke-width:1;" width="15" x="1979.7969"
                  y="525.7373"/>
            <rect fill="#FFFFFF" height="2" style="stroke:#000000;stroke-width:1;" width="4" x="1977.7969"
                  y="527.7373"/>
            <rect fill="#FFFFFF" height="2" style="stroke:#000000;stroke-width:1;" width="4" x="1977.7969"
                  y="531.7373"/>
            <text fill="#000000" font-family="Verdana" font-size="14" lengthAdjust="spacing" textLength="79.2969"
                  x="1895.5" y="554.8125">MDM (VEE)
            </text>
        </g><!--entity AE-->
        <g class="entity" data-qualified-name="Simulator Layer.AE" data-source-line="21" id="ent0016">
            <rect fill="#FFFFFF" height="47.0146" rx="2.5" ry="2.5" style="stroke:#000000;stroke-width:1;"
                  width="155.3086" x="1786.5" y="443.7373"/>
            <rect fill="#FFFFFF" height="10" style="stroke:#000000;stroke-width:1;" width="15" x="1921.8086"
                  y="448.7373"/>
            <rect fill="#FFFFFF" height="2" style="stroke:#000000;stroke-width:1;" width="4" x="1919.8086"
                  y="450.7373"/>
            <rect fill="#FFFFFF" height="2" style="stroke:#000000;stroke-width:1;" width="4" x="1919.8086"
                  y="454.7373"/>
            <text fill="#000000" font-family="Verdana" font-size="14" lengthAdjust="spacing" textLength="115.3086"
                  x="1801.5" y="477.8125">Analytics Engine
            </text>
        </g><!--entity DM-->
        <g class="entity" data-qualified-name="Simulator Layer.DM" data-source-line="22" id="ent0017">
            <rect fill="#FFFFFF" height="47.0146" rx="2.5" ry="2.5" style="stroke:#000000;stroke-width:1;"
                  width="163.1289" x="2031.5" y="366.7373"/>
            <rect fill="#FFFFFF" height="10" style="stroke:#000000;stroke-width:1;" width="15" x="2174.6289"
                  y="371.7373"/>
            <rect fill="#FFFFFF" height="2" style="stroke:#000000;stroke-width:1;" width="4" x="2172.6289"
                  y="373.7373"/>
            <rect fill="#FFFFFF" height="2" style="stroke:#000000;stroke-width:1;" width="4" x="2172.6289"
                  y="377.7373"/>
            <text fill="#000000" font-family="Verdana" font-size="14" lengthAdjust="spacing" textLength="123.1289"
                  x="2046.5" y="400.8125">Delivery Manager
            </text>
        </g><!--entity MP-->
        <g class="entity" data-qualified-name="Simulator Layer.MP" data-source-line="23" id="ent0018">
            <rect fill="#FFFFFF" height="47.0146" rx="2.5" ry="2.5" style="stroke:#000000;stroke-width:1;"
                  width="116.002" x="1695" y="768.7373"/>
            <rect fill="#FFFFFF" height="10" style="stroke:#000000;stroke-width:1;" width="15" x="1791.002"
                  y="773.7373"/>
            <rect fill="#FFFFFF" height="2" style="stroke:#000000;stroke-width:1;" width="4" x="1789.002" y="775.7373"/>
            <rect fill="#FFFFFF" height="2" style="stroke:#000000;stroke-width:1;" width="4" x="1789.002" y="779.7373"/>
            <text fill="#000000" font-family="Verdana" font-size="14" lengthAdjust="spacing" textLength="76.002"
                  x="1710" y="802.8125">Meter Park
            </text>
        </g><!--entity DG-->
        <g class="entity" data-qualified-name="Simulator Layer.DG" data-source-line="24" id="ent0019">
            <rect fill="#FFFFFF" height="47.0146" rx="2.5" ry="2.5" style="stroke:#000000;stroke-width:1;"
                  width="148.8076" x="1746.5" y="892.7373"/>
            <rect fill="#FFFFFF" height="10" style="stroke:#000000;stroke-width:1;" width="15" x="1875.3076"
                  y="897.7373"/>
            <rect fill="#FFFFFF" height="2" style="stroke:#000000;stroke-width:1;" width="4" x="1873.3076"
                  y="899.7373"/>
            <rect fill="#FFFFFF" height="2" style="stroke:#000000;stroke-width:1;" width="4" x="1873.3076"
                  y="903.7373"/>
            <text fill="#000000" font-family="Verdana" font-size="14" lengthAdjust="spacing" textLength="108.8076"
                  x="1761.5" y="926.8125">Data Generator
            </text>
        </g><!--link API to Auth-->
        <g class="link" data-entity-1="ent0003" data-entity-2="ent0011" data-link-type="dependency"
           data-source-line="27" id="lnk20">
            <path d="M115,142.0573 C115,169.0173 115,207.6073 115,234.5273" fill="none" id="API-to-Auth"
                  style="stroke:#000000;stroke-width:1;"/>
            <polygon fill="#000000" points="115,240.5273,119,231.5273,115,235.5273,111,231.5273,115,240.5273"
                     style="stroke:#000000;stroke-width:1;"/>
            <text fill="#000000" font-family="Verdana" font-size="13" lengthAdjust="spacing" textLength="58.1826"
                  x="116" y="185.8071">validates
            </text>
        </g><!--link API to Engine-->
        <g class="link" data-entity-1="ent0003" data-entity-2="ent0013" data-link-type="dependency"
           data-source-line="28" id="lnk21">
            <path d="M202.81,139.4273 C282.27,156.5773 402.76,179.7773 509,188.7373 C540.5,191.3973 1616.45,188.6073 1647,196.7373 C1679.27,205.3273 1707.107,221.4464 1729.897,237.1264"
                  fill="none" id="API-to-Engine" style="stroke:#000000;stroke-width:1;"/>
            <polygon fill="#000000"
                     points="1734.84,240.5273,1729.6927,232.1306,1730.7208,237.6932,1725.1581,238.7213,1734.84,240.5273"
                     style="stroke:#000000;stroke-width:1;"/>
            <text fill="#000000" font-family="Verdana" font-size="13" lengthAdjust="spacing" textLength="47.7026"
                  x="510" y="185.8071">queries
            </text>
        </g><!--link Health to Engine-->
        <g class="link" data-entity-1="ent0004" data-entity-2="ent0013" data-link-type="dependency"
           data-source-line="30" id="lnk22">
            <path d="M374.83,138.0373 C380.62,139.3773 386.4,140.6373 392,141.7373 C545.99,172.0973 585.45,177.5773 742,188.7373 C792.15,192.3173 1598.42,183.7573 1647,196.7373 C1679.26,205.3573 1707.0959,221.4779 1729.8859,237.1479"
                  fill="none" id="Health-to-Engine" style="stroke:#000000;stroke-width:1;"/>
            <polygon fill="#000000"
                     points="1734.83,240.5473,1729.6802,232.1521,1730.7099,237.7144,1725.1476,238.7442,1734.83,240.5473"
                     style="stroke:#000000;stroke-width:1;"/>
        </g><!--link Meters to Engine-->
        <g class="link" data-entity-1="ent0005" data-entity-2="ent0013" data-link-type="dependency"
           data-source-line="31" id="lnk23">
            <path d="M548.95,137.9773 C555.03,139.3473 561.11,140.6273 567,141.7373 C735.1,173.4373 778.33,177.2973 949,188.7373 C987.69,191.3273 1609.55,186.6773 1647,196.7373 C1679.25,205.3973 1707.0842,221.5103 1729.8842,237.1703"
                  fill="none" id="Meters-to-Engine" style="stroke:#000000;stroke-width:1;"/>
            <polygon fill="#000000"
                     points="1734.83,240.5673,1729.676,232.1747,1730.7085,237.7365,1725.1467,238.769,1734.83,240.5673"
                     style="stroke:#000000;stroke-width:1;"/>
        </g><!--link Readings to Engine-->
        <g class="link" data-entity-1="ent0006" data-entity-2="ent0013" data-link-type="dependency"
           data-source-line="32" id="lnk24">
            <path d="M740.17,138.3573 C746.19,139.5873 752.18,140.7273 758,141.7373 C940.46,173.3673 987.21,176.7173 1172,188.7373 C1224.67,192.1673 1596.06,182.9073 1647,196.7373 C1679.23,205.4873 1707.0622,221.5933 1729.8622,237.2333"
                  fill="none" id="Readings-to-Engine" style="stroke:#000000;stroke-width:1;"/>
            <polygon fill="#000000"
                     points="1734.81,240.6273,1729.651,232.2378,1730.6868,237.799,1725.1256,238.8348,1734.81,240.6273"
                     style="stroke:#000000;stroke-width:1;"/>
        </g><!--link UP to Engine-->
        <g class="link" data-entity-1="ent0007" data-entity-2="ent0013" data-link-type="dependency"
           data-source-line="33" id="lnk25">
            <path d="M957.18,138.6673 C963.2,139.7573 969.18,140.7973 975,141.7373 C1151.71,170.2973 1196.48,175.6473 1375,188.7373 C1405.15,190.9473 1617.87,188.6373 1647,196.7373 C1678.94,205.6273 1706.5401,221.5211 1729.3401,237.0411"
                  fill="none" id="UP-to-Engine" style="stroke:#000000;stroke-width:1;"/>
            <polygon fill="#000000"
                     points="1734.3,240.4173,1729.1109,232.0463,1730.1667,237.6038,1724.6093,238.6596,1734.3,240.4173"
                     style="stroke:#000000;stroke-width:1;"/>
        </g><!--link RT to Engine-->
        <g class="link" data-entity-1="ent0008" data-entity-2="ent0013" data-link-type="dependency"
           data-source-line="34" id="lnk26">
            <path d="M1187.5,138.6373 C1193.42,139.7073 1199.29,140.7573 1205,141.7373 C1344.93,165.8173 1379.8,173.7773 1521,188.7373 C1548.9,191.6973 1620.1,188.7573 1647,196.7373 C1678.56,206.0973 1705.9075,221.7645 1728.7275,237.0745"
                  fill="none" id="RT-to-Engine" style="stroke:#000000;stroke-width:1;"/>
            <polygon fill="#000000"
                     points="1733.71,240.4173,1728.4647,232.0814,1729.5579,237.6316,1724.0077,238.7248,1733.71,240.4173"
                     style="stroke:#000000;stroke-width:1;"/>
        </g><!--link Analytics to Engine-->
        <g class="link" data-entity-1="ent0009" data-entity-2="ent0013" data-link-type="dependency"
           data-source-line="35" id="lnk27">
            <path d="M1377.53,137.4773 C1383.78,138.9273 1389.99,140.3573 1396,141.7373 C1489.23,163.0973 1512.39,169.1373 1606,188.7373 C1624.17,192.5473 1629.58,190.3173 1647,196.7373 C1677.23,207.8773 1703.8371,222.9175 1726.7471,237.4875"
                  fill="none" id="Analytics-to-Engine" style="stroke:#000000;stroke-width:1;"/>
            <polygon fill="#000000"
                     points="1731.81,240.7073,1726.3622,232.5023,1727.5909,238.0241,1722.0691,239.2528,1731.81,240.7073"
                     style="stroke:#000000;stroke-width:1;"/>
        </g><!--link DP to Engine-->
        <g class="link" data-entity-1="ent0010" data-entity-2="ent0013" data-link-type="dependency"
           data-source-line="36" id="lnk28">
            <path d="M1560.24,141.8973 C1605.81,168.9073 1676.3482,210.6986 1721.8282,237.6486" fill="none"
                  id="DP-to-Engine" style="stroke:#000000;stroke-width:1;"/>
            <polygon fill="#000000"
                     points="1726.99,240.7073,1721.2864,232.678,1722.6885,238.1584,1717.2081,239.5604,1726.99,240.7073"
                     style="stroke:#000000;stroke-width:1;"/>
        </g><!--link Engine to HES-->
        <g class="link" data-entity-1="ent0013" data-entity-2="ent0014" data-link-type="dependency"
           data-source-line="38" id="lnk29">
            <path d="M1752,287.9973 C1730.41,328.7173 1691.28,416.7073 1710,490.7373 C1725.36,551.4673 1736.44,567.0073 1777,614.7373 C1786.46,625.8773 1793.8313,632.6023 1805.2613,641.0823"
                  fill="none" id="Engine-to-HES" style="stroke:#000000;stroke-width:1;"/>
            <polygon fill="#000000"
                     points="1810.08,644.6573,1805.2353,636.0824,1806.0645,641.6781,1800.4687,642.5072,1810.08,644.6573"
                     style="stroke:#000000;stroke-width:1;"/>
            <text fill="#000000" font-family="Verdana" font-size="13" lengthAdjust="spacing" textLength="57.4019"
                  x="1711" y="472.8071">raw data
            </text>
        </g><!--link Engine to MDM-->
        <g class="link" data-entity-1="ent0013" data-entity-2="ent0015" data-link-type="dependency"
           data-source-line="39" id="lnk30">
            <path d="M1819.81,287.7973 C1835.95,296.1973 1852.8,306.8773 1866,319.7373 C1900.52,353.3473 1893.28,373.6373 1920,413.7373 C1929.32,427.7173 1937.6,427.8273 1943,443.7373 C1951.55,468.9373 1949.7652,493.9173 1946.1552,514.5273"
                  fill="none" id="Engine-to-MDM" style="stroke:#000000;stroke-width:1;"/>
            <polygon fill="#000000"
                     points="1945.12,520.4373,1950.6128,512.2624,1945.9827,515.5123,1942.7328,510.8821,1945.12,520.4373"
                     style="stroke:#000000;stroke-width:1;"/>
            <text fill="#000000" font-family="Verdana" font-size="13" lengthAdjust="spacing" textLength="92.917"
                  x="1921" y="395.8071">validated data
            </text>
        </g><!--link Engine to AE-->
        <g class="link" data-entity-1="ent0013" data-entity-2="ent0016" data-link-type="dependency"
           data-source-line="40" id="lnk31">
            <path d="M1776.16,287.9073 C1795.23,326.6073 1831.1885,399.625 1850.2285,438.275" fill="none"
                  id="Engine-to-AE" style="stroke:#000000;stroke-width:1;"/>
            <polygon fill="#000000"
                     points="1852.88,443.6573,1852.491,433.8161,1850.6704,439.172,1845.3145,437.3514,1852.88,443.6573"
                     style="stroke:#000000;stroke-width:1;"/>
            <text fill="#000000" font-family="Verdana" font-size="13" lengthAdjust="spacing" textLength="57.3384"
                  x="1800" y="333.8071">analytics
            </text>
        </g><!--link Engine to DM-->
        <g class="link" data-entity-1="ent0013" data-entity-2="ent0017" data-link-type="dependency"
           data-source-line="41" id="lnk32">
            <path d="M1828.42,287.8373 C1891.26,310.2273 1981.2881,342.3034 2044.0681,364.6734" fill="none"
                  id="Engine-to-DM" style="stroke:#000000;stroke-width:1;"/>
            <polygon fill="#000000"
                     points="2049.72,366.6873,2042.5847,359.8985,2045.0101,365.009,2039.8995,367.4344,2049.72,366.6873"
                     style="stroke:#000000;stroke-width:1;"/>
            <text fill="#000000" font-family="Verdana" font-size="13" lengthAdjust="spacing" textLength="115.1846"
                  x="1960" y="333.8071">on-demand reads
            </text>
        </g><!--link HES to MP-->
        <g class="link" data-entity-1="ent0014" data-entity-2="ent0018" data-link-type="dependency"
           data-source-line="43" id="lnk33">
            <path d="M1796.8,691.8673 C1784.71,699.7173 1772.93,709.6473 1765,721.7373 C1755.93,735.5573 1753.3634,748.1335 1752.7034,762.6035"
                  fill="none" id="HES-to-MP" style="stroke:#000000;stroke-width:1;"/>
            <polygon fill="#000000"
                     points="1752.43,768.5973,1756.8359,759.7889,1752.6578,763.6025,1748.8442,759.4244,1752.43,768.5973"
                     style="stroke:#000000;stroke-width:1;"/>
            <text fill="#000000" font-family="Verdana" font-size="13" lengthAdjust="spacing" textLength="105.0854"
                  x="1766" y="735.8071">meter inventory
            </text>
        </g><!--link HES to DG-->
        <g class="link" data-entity-1="ent0014" data-entity-2="ent0019" data-link-type="dependency"
           data-source-line="44" id="lnk34">
            <path d="M1861.9,691.8073 C1867.55,700.6673 1873.13,711.2173 1876,721.7373 C1892.52,782.1873 1900.65,805.1273 1876,862.7373 C1871.12,874.1473 1866.8581,880.2305 1857.7781,888.4505"
                  fill="none" id="HES-to-DG" style="stroke:#000000;stroke-width:1;"/>
            <polygon fill="#000000"
                     points="1853.33,892.4773,1862.6866,889.4025,1857.0367,889.1217,1857.3176,883.4718,1853.33,892.4773"
                     style="stroke:#000000;stroke-width:1;"/>
            <text fill="#000000" font-family="Verdana" font-size="13" lengthAdjust="spacing" textLength="103.3843"
                  x="1892" y="797.8071">data generation
            </text>
        </g><!--link MDM to HES-->
        <g class="link" data-entity-1="ent0015" data-entity-2="ent0014" data-link-type="dependency"
           data-source-line="45" id="lnk35">
            <path d="M1922.35,567.8973 C1905.29,589.8073 1883.2663,618.0933 1866.2363,639.9633" fill="none"
                  id="MDM-to-HES" style="stroke:#000000;stroke-width:1;"/>
            <polygon fill="#000000"
                     points="1862.55,644.6973,1871.2355,640.0538,1865.622,640.7523,1864.9235,635.1387,1862.55,644.6973"
                     style="stroke:#000000;stroke-width:1;"/>
            <text fill="#000000" font-family="Verdana" font-size="13" lengthAdjust="spacing" textLength="84.4302"
                  x="1899" y="611.8071">raw readings
            </text>
        </g><!--link AE to HES-->
        <g class="link" data-entity-1="ent0016" data-entity-2="ent0014" data-link-type="dependency"
           data-source-line="46" id="lnk36">
            <path d="M1807.47,490.8473 C1795.31,498.4673 1784.02,508.2973 1777,520.7373 C1753.08,563.1073 1788.6648,611.009 1816.7548,640.269"
                  fill="none" id="AE-to-HES" style="stroke:#000000;stroke-width:1;"/>
            <polygon fill="#000000"
                     points="1820.91,644.5973,1817.5627,635.3347,1817.4473,640.9904,1811.7916,640.875,1820.91,644.5973"
                     style="stroke:#000000;stroke-width:1;"/>
            <text fill="#000000" font-family="Verdana" font-size="13" lengthAdjust="spacing" textLength="84.4302"
                  x="1778" y="549.8071">raw readings
            </text>
        </g><!--link DM to HES-->
        <g class="link" data-entity-1="ent0017" data-entity-2="ent0014" data-link-type="dependency"
           data-source-line="47" id="lnk37">
            <path d="M2111.25,413.9373 C2108.96,434.7573 2103.74,466.0173 2092,490.7373 C2061.63,554.6873 2049.72,573.7373 1992,614.7373 C1970.35,630.1173 1949.4306,639.5457 1924.8206,647.6257"
                  fill="none" id="DM-to-HES" style="stroke:#000000;stroke-width:1;"/>
            <polygon fill="#000000"
                     points="1919.12,649.4973,1928.9187,650.4903,1923.8705,647.9376,1926.4232,642.8894,1919.12,649.4973"
                     style="stroke:#000000;stroke-width:1;"/>
            <text fill="#000000" font-family="Verdana" font-size="13" lengthAdjust="spacing" textLength="140.334"
                  x="2078" y="549.8071">on-demand collection
            </text>
        </g><!--link DM to MDM-->
        <g class="link" data-entity-1="ent0017" data-entity-2="ent0015" data-link-type="dependency"
           data-source-line="48" id="lnk38">
            <path d="M2032.67,413.8373 C2015.81,421.3273 1999.17,431.0973 1986,443.7373 C1964.03,464.8173 1953.1764,492.6419 1946.9164,514.8719"
                  fill="none" id="DM-to-MDM" style="stroke:#000000;stroke-width:1;"/>
            <polygon fill="#000000"
                     points="1945.29,520.6473,1951.5798,513.0685,1946.6453,515.8345,1943.8793,510.9,1945.29,520.6473"
                     style="stroke:#000000;stroke-width:1;"/>
            <text fill="#000000" font-family="Verdana" font-size="13" lengthAdjust="spacing" textLength="100.0518"
                  x="1987" y="472.8071">validated reads
            </text>
        </g><!--link MP to DG-->
        <g class="link" data-entity-1="ent0018" data-entity-2="ent0019" data-link-type="dependency"
           data-source-line="50" id="lnk39">
            <path d="M1765.22,815.8373 C1772.61,829.4573 1782.28,847.1373 1791,862.7373 C1796.48,872.5373 1799.6365,878.1117 1804.9265,887.3417"
                  fill="none" id="MP-to-DG" style="stroke:#000000;stroke-width:1;"/>
            <polygon fill="#000000"
                     points="1807.91,892.5473,1806.9052,882.7498,1805.4237,888.2093,1799.9643,886.7279,1807.91,892.5473"
                     style="stroke:#000000;stroke-width:1;"/>
            <text fill="#000000" font-family="Verdana" font-size="13" lengthAdjust="spacing" textLength="79.5361"
                  x="1792" y="859.8071">meter specs
            </text>
        </g>
        <?plantuml-src TLD1Rjim4Bpp5TkSqeC_q4C1eLAT01KWn7OlHGyBQQ4GfaYLeXq8HO4-eY_iIxeK6ObqK9t4cTtbp91yvvvf81WLIYs4aquHDEPCHVq8Vt__WKzc68qcxQ2Ks5iSX1YnFMDFS5SqZ_05Px9ty5C0Vzy-u-GyMeoZaYqwQVHtm0aO2mKFXCezmvEvEB8B5P30riJebB812UmJOITrd_6lMAWuJLvNOwHsMTMfoIR0SHuf7tCC1OL6DJlPPkGAXfgIbBoIdQ6nPf1JFgYCEnKNTbdBhbFqWfR27CR4hoI_Wnmk2fsnDockUALxgKDp-5r3x4XtSFzG7Tw74Aj3JB2iuVvhLGMOLxU-af55TMEeHiswef4wEH9eq9x3nEYlH8Um9qtMwmmTUs_Ed_vkzt4n2n_WYafsw6XQYI20gHyNif894U_4Hefu3n9aFVi4EpLPnJ5TROOJiCmQH5JY8SwF5Lby0HQBAUC3tMnqR_YYOXhN6v8mIwFHkuu6vCEoxC2RvPsMkGspmnAkr5T-NyREArdkcVGxGHyYvdSal99Sgtsz_2pYFqpMiubfZLBKBcDZnQtFABTkDa51xJGI-_m7?>
    </g>
</svg>